<svg width="25" height="24" viewBox="0 0 25 24" fill="none" xmlns="http://www.w3.org/2000/svg">
<path d="M20.7959 9.79598L13.2959 17.296C13.1914 17.4009 13.0672 17.4841 12.9304 17.5409C12.7937 17.5976 12.6471 17.6269 12.499 17.6269C12.351 17.6269 12.2043 17.5976 12.0676 17.5409C11.9309 17.4841 11.8067 17.4009 11.7021 17.296L4.20215 9.79598C3.9908 9.58464 3.87207 9.29799 3.87207 8.9991C3.87207 8.70022 3.9908 8.41357 4.20215 8.20223C4.41349 7.99089 4.70014 7.87215 4.99902 7.87215C5.29791 7.87215 5.58455 7.99089 5.7959 8.20223L12.5 14.9063L19.204 8.20129C19.4154 7.98995 19.702 7.87122 20.0009 7.87122C20.2998 7.87122 20.5864 7.98995 20.7978 8.20129C21.0091 8.41264 21.1278 8.69928 21.1278 8.99817C21.1278 9.29705 21.0091 9.5837 20.7978 9.79504L20.7959 9.79598Z" fill="#4B758B"/>
</svg>
