<svg width="196" height="115" viewBox="0 0 196 115" fill="none" xmlns="http://www.w3.org/2000/svg">
<path fill-rule="evenodd" clip-rule="evenodd" d="M109.017 19.1111C111.726 19.0958 113.45 18.5047 114.473 17.3838C116.091 15.6091 116.819 13.4807 116.759 11.098C116.712 9.0676 115.995 7.28523 114.577 5.81523C114.092 5.31451 113.644 4.69895 113.049 4.40648C111.53 3.66382 109.857 3.45098 108.211 3.79551C102.66 4.95926 100.206 11.2956 103.473 15.9184C104.992 18.0668 107.144 18.9794 109.017 19.1111ZM109.225 2.85379C109.898 2.95945 110.668 3.04367 111.419 3.20904C112.694 3.48773 113.716 4.23192 114.655 5.10473C116.629 6.93917 117.66 9.20848 117.585 11.905C117.524 14.0442 116.891 16.0333 115.536 17.7329C114.126 19.4985 112.197 20.2059 110.013 20.2473C106.879 20.31 104.513 18.9579 102.499 16.5171C99.2857 12.6186 101.201 4.29776 107.973 2.97782C108.349 2.90432 108.741 2.89973 109.225 2.85379Z" fill="#DBC0BD"/>
<path fill-rule="evenodd" clip-rule="evenodd" d="M116.403 44.3647C116.403 45.357 116.418 46.0751 116.389 46.7918C116.383 46.9464 116.247 47.1792 116.12 47.2205C115.985 47.2649 115.727 47.1746 115.635 47.0551C115.519 46.9036 115.484 46.6662 115.471 46.4626C115.331 44.4291 115.217 42.394 115.061 40.3636C114.997 39.5428 114.847 38.7282 114.731 37.9136C114.702 37.7038 114.61 37.4986 114.621 37.295C114.633 37.0882 114.734 36.8876 114.795 36.684C114.951 36.8264 115.191 36.9412 115.248 37.1173C115.49 37.8661 115.762 38.6195 115.867 39.3943C116.105 41.1338 116.248 42.884 116.403 44.3647Z" fill="#DBC0BD"/>
<mask id="mask0_2_19" style="mask-type:luminance" maskUnits="userSpaceOnUse" x="120" y="27" width="4" height="20">
<path d="M120.494 27.4547H123.936V46.3258H120.494V27.4547Z" fill="white"/>
</mask>
<g mask="url(#mask0_2_19)">
<path fill-rule="evenodd" clip-rule="evenodd" d="M123.325 38.8288C123.002 35.1783 122.661 31.534 121.224 28.1055C121.166 27.9661 121.146 27.8467 121.162 27.7334C121.083 27.6476 121.013 27.5558 120.954 27.4547C120.783 27.493 120.624 27.5496 120.494 27.6461C120.546 27.8207 120.575 28.0029 120.575 28.1851C120.641 28.1438 120.708 28.1086 120.772 28.0687C121.069 29.3626 121.478 30.5815 121.606 31.8295C121.868 34.3652 121.978 36.9163 122.147 39.4597C122.258 41.0767 122.317 42.6968 122.496 44.3061C122.562 44.888 122.878 45.4561 123.151 45.9951C123.235 46.1635 123.551 46.2171 123.761 46.3258C123.822 46.087 123.954 45.8435 123.934 45.6138C123.744 43.3506 123.525 41.0905 123.325 38.8288Z" fill="#DBC0BD"/>
</g>
<path fill-rule="evenodd" clip-rule="evenodd" d="M120.782 28.1191C120.86 28.0272 120.956 27.9522 121.06 27.8818C121.095 27.8374 121.134 27.7991 121.175 27.7608C121.19 27.6306 121.239 27.5051 121.349 27.3703C122.118 26.4225 122.374 25.3139 122.077 24.1425C121.649 22.4627 120.305 21.6863 118.387 21.8012C116.161 21.9344 113.93 22.0492 111.702 22.0646C108.45 22.0875 105.194 22.1166 101.95 21.9528C98.4447 21.7736 94.947 21.3893 91.4492 21.0723C88.5296 20.8089 85.6145 20.7538 82.7316 21.351C78.674 22.1901 75.6504 24.3522 74.1852 28.3702C73.9405 29.044 73.8273 29.7637 73.6392 30.4589C72.7858 33.6163 72.4172 36.8503 72.1159 40.0904C71.9874 41.4716 72.0318 42.8696 72.0058 44.2585C71.9981 44.8036 71.9966 45.3472 72.0241 45.8893C72.0318 46.0256 72.1679 46.1557 72.2444 46.2874C72.3897 46.1281 72.4096 46.0286 72.4141 45.9291C72.4998 44.208 72.4891 42.4746 72.6848 40.7657C73.0657 37.4475 73.4801 34.1339 74.3091 30.883C74.7358 29.2155 75.1441 27.5526 76.2056 26.1729C77.8543 24.0246 80.0413 22.7092 82.6994 22.1534C86.2293 21.4138 89.776 21.5883 93.3013 22.0446C97.2671 22.5576 101.242 22.8593 105.234 22.9236C108.189 22.9726 111.142 22.9328 114.098 22.9251C114.447 22.9236 114.799 22.8822 115.149 22.8577C116.394 22.7766 117.639 22.6296 118.884 22.625C121.208 22.6158 121.843 24.7335 120.981 26.3429C120.566 27.1161 119.928 27.6735 119.116 27.9859C118.281 28.3059 117.434 28.6091 116.568 28.8311C112.32 29.9183 107.959 30.1189 103.61 30.4252C102.251 30.5201 100.907 30.834 99.5597 31.076C99.084 31.1586 98.7476 31.419 98.6374 31.9549C98.4111 33.0559 98.1327 34.1446 97.885 35.2394C97.1371 38.55 97.0591 41.905 97.2854 45.2706C97.3328 45.9781 97.5776 46.6794 97.7886 47.3654C97.9018 47.7329 98.2016 47.9457 98.6206 47.8003C98.9556 47.6808 99.0611 47.2582 98.8974 46.8463C98.7827 46.5554 98.639 46.2614 98.6007 45.9551C98.4692 44.9292 98.3744 43.8971 98.2704 42.8651C97.9171 39.2865 98.3101 35.7692 99.1773 32.2979C99.2247 32.105 99.4496 31.8477 99.627 31.8156C100.803 31.6073 101.982 31.3991 103.171 31.2919C106.34 31.0101 109.524 30.8861 112.677 30.4971C115.461 30.1541 118.252 29.6825 120.773 28.087C120.776 28.0977 120.779 28.1084 120.782 28.1191Z" fill="#A4C1CF"/>
<path fill-rule="evenodd" clip-rule="evenodd" d="M88.8537 16.2579C91.5593 16.2426 93.2829 15.65 94.3076 14.5322C95.8936 12.8065 96.6185 10.7255 96.6048 8.40564C96.5925 6.32161 95.8798 4.47799 94.4162 2.96358C93.9314 2.46439 93.4848 1.84577 92.8898 1.5533C91.3711 0.810642 89.698 0.597798 88.0538 0.940798C82.5021 2.09995 80.0428 8.44086 83.3081 13.0606C84.8268 15.2105 86.9771 16.1216 88.8537 16.2579ZM89.0633 0.000610352C89.7347 0.106267 90.504 0.190485 91.2564 0.354329C92.532 0.634548 93.5536 1.37874 94.4927 2.25155C96.4671 4.08599 97.498 6.35377 97.4215 9.05183C97.3603 11.191 96.7287 13.1785 95.3736 14.8782C93.962 16.6438 92.0349 17.3512 89.8509 17.3941C86.7156 17.4553 84.3511 16.1032 82.3369 13.664C79.1221 9.76539 81.0369 1.44458 87.8107 0.12311C88.1869 0.0496104 88.5784 0.0450166 89.0633 0.000610352Z" fill="#A4C1CF"/>
<mask id="mask1_2_19" style="mask-type:luminance" maskUnits="userSpaceOnUse" x="79" y="34" width="3" height="15">
<path d="M79.5488 34.7346H81.0782V48.1266H79.5488V34.7346Z" fill="white"/>
</mask>
<g mask="url(#mask1_2_19)">
<path fill-rule="evenodd" clip-rule="evenodd" d="M80.6217 34.7346C80.6845 35.6319 80.7839 36.4986 80.7992 37.3683C80.8466 40.4094 80.8695 43.4504 80.8955 46.493C80.8986 46.7564 80.8588 47.0182 80.842 47.2801C80.8022 47.8512 80.5025 48.133 79.8479 48.127C79.8081 47.9018 79.727 47.669 79.7316 47.4393C79.8157 43.9956 79.9106 40.5518 80.0039 37.108C80.0176 36.546 80.0115 35.981 80.0574 35.4221C80.0803 35.1312 80.1033 34.7759 80.6217 34.7346Z" fill="#A4C1CF"/>
</g>
<path fill-rule="evenodd" clip-rule="evenodd" d="M88 97L98.0008 115L108 97H88Z" fill="#A5C2D0"/>
<mask id="mask2_2_19" style="mask-type:luminance" maskUnits="userSpaceOnUse" x="0" y="47" width="14" height="14">
<path d="M0 47.828H13.0762V60.5793H0V47.828Z" fill="white"/>
</mask>
<g mask="url(#mask2_2_19)">
<path fill-rule="evenodd" clip-rule="evenodd" d="M0.238694 56.744C0.69493 55.724 1.34552 54.829 1.99611 53.9323C2.81305 52.824 5.61634 49.5157 6.23399 48.9323C7.39846 47.7657 8.20552 47.5573 9.3354 48.1473C11.3218 49.0573 13.4745 50.079 13.0133 51.3507C12.6032 52.824 10.5509 51.7407 9.04222 50.724C8.50528 50.4057 8.13799 50.3457 7.72128 50.8773C7.3754 51.334 7.02458 51.7157 6.69187 52.1423C6.41187 52.449 6.45469 52.829 6.84505 53.0807C8.06552 53.784 8.97964 54.059 8.62881 55.1623C8.05728 56.599 6.72481 55.6657 5.17493 55.1357C4.56716 54.894 4.29375 54.949 3.90505 55.4207C3.65305 55.739 3.40599 56.134 3.17211 56.4973C2.92834 56.964 3.04528 57.3407 3.57728 57.5857C5.44505 58.4423 6.89611 58.2373 6.54528 59.7407C6.44646 60.2007 6.00834 60.5423 5.45493 60.579C4.87187 60.6007 1.46246 59.4373 1.07869 59.2623C0.0212826 58.669 -0.258717 57.854 0.238694 56.744Z" fill="#F3EEE7"/>
</g>
<path fill-rule="evenodd" clip-rule="evenodd" d="M17.9489 65.6942C18.6851 64.5592 19.4411 63.4658 21.2792 60.8392C21.7849 60.0758 22.1308 59.5708 21.8985 59.2442C21.6679 58.9192 21.1491 59.2225 20.6599 59.5392L18.7576 60.9575C17.7084 61.7025 17.1402 61.8508 16.5374 61.6025C15.5442 61.1825 15.7171 59.9875 15.9197 58.6992C15.9988 58.1692 16.1058 57.8592 15.7385 57.7292C15.4305 57.6192 15.1604 57.9075 14.8541 58.2892C13.8279 59.5642 12.8743 60.8308 11.919 62.2008C11.2865 63.2325 10.5915 63.5458 9.97053 63.1525C9.44018 62.7908 9.2343 62.0892 9.55218 61.4692C10.2308 60.0008 14.2941 55.0208 16.0515 53.1308C16.7416 52.3275 17.5058 52.0075 18.1202 52.2242C19.4411 52.6908 19.1529 54.8225 18.9042 56.4408C18.8366 56.8375 18.8663 57.0542 19.1496 57.2258C19.4477 57.3658 19.6536 57.2642 20.2366 56.8775C21.6795 55.9942 24.1863 54.7175 25.2305 55.0875C25.8745 55.3142 26.2254 55.9975 26.1315 56.8692C26.0014 58.0442 24.9621 59.5592 24.2258 60.6942C22.5623 63.3142 20.2399 66.7475 19.6865 67.2508C19.1974 67.6708 18.5698 67.6908 18.0922 67.2775C17.5915 66.9275 17.5404 66.2825 17.9489 65.6942Z" fill="#F3EEE7"/>
<path fill-rule="evenodd" clip-rule="evenodd" d="M32.8769 60.4192C32.8176 59.7558 32.3119 59.7542 31.6762 60.1242C30.0505 61.2858 28.6736 62.7842 28.1152 64.8825C27.8797 65.7725 27.9143 66.3958 28.4002 66.5975C29.5976 67.1625 32.9246 62.1358 32.8769 60.4192ZM25.7435 67.3375C24.7355 64.1642 27.5668 59.8558 30.6978 57.8458C31.2644 57.4892 31.8689 57.2458 32.4387 57.1275C33.3413 57.0325 33.8091 57.2975 34.1747 58.0792C34.3427 58.4642 34.519 58.6842 34.766 58.8875C35.5962 59.6942 35.4067 61.5525 34.7825 62.8825C33.567 65.4142 31.8162 67.9392 29.5811 68.9975C27.8764 69.8292 26.3413 69.1375 25.7435 67.3375Z" fill="#F3EEE7"/>
<path fill-rule="evenodd" clip-rule="evenodd" d="M38.1175 69.9439C39.3561 67.9872 42.1462 62.7272 42.3685 61.6639C42.4295 61.3722 42.3553 61.0889 42.0045 61.0139C40.2866 60.6472 38.4041 60.5822 37.6398 60.4189C37.2577 60.3372 36.9925 60.0122 36.9481 59.4305C36.8575 58.7372 37.5871 58.1189 38.4403 58.1689C40.7626 58.1905 42.4328 58.4805 48.6356 59.8372C49.8775 60.1022 50.4012 60.6172 50.2398 61.3905C50.1278 61.9372 49.6073 62.3655 48.9881 62.3005C48.2106 62.2022 47.1516 62.0105 46.5158 61.8739C45.2739 61.6105 45.157 61.6855 44.5921 62.8105C43.169 65.8055 41.5153 69.1205 40.1269 71.3139C39.5504 72.1672 38.7302 72.4305 38.1356 71.9322C37.5393 71.4372 37.5344 70.8289 38.1175 69.9439Z" fill="#F3EEE7"/>
<path fill-rule="evenodd" clip-rule="evenodd" d="M52.8046 62.2338C53.1966 61.6672 53.7962 61.4355 54.287 61.6538C55.0315 61.9472 55.1352 62.7005 54.6279 63.9488C53.7748 66.1055 52.5988 68.0072 51.4969 70.0538C50.2089 72.4372 49.5846 74.0005 48.4366 73.3705C47.1174 72.7755 48.1583 71.0855 48.9225 69.6805C50.5268 66.9855 52.4341 62.8722 52.8046 62.2338Z" fill="#F3EEE7"/>
<path fill-rule="evenodd" clip-rule="evenodd" d="M61.8211 66.0067C61.6778 65.3567 61.1771 65.42 60.5924 65.8733C59.1298 67.235 57.9554 68.9017 57.6688 71.055C57.5453 71.9683 57.6622 72.5817 58.1695 72.7183C59.4279 73.1233 62.0879 67.705 61.8211 66.0067ZM55.6281 73.8C54.2248 70.785 56.4846 66.1433 59.3324 63.7417C59.8495 63.3133 60.4178 62.9917 60.9679 62.8017C61.8507 62.5883 62.3481 62.79 62.8093 63.5183C63.0234 63.88 63.2277 64.0733 63.5011 64.2433C64.4267 64.9333 64.4728 66.8017 64.0248 68.2017C63.1437 70.8717 61.7272 73.6033 59.647 74.945C58.0608 75.9917 56.4517 75.5067 55.6281 73.8Z" fill="#F3EEE7"/>
<path fill-rule="evenodd" clip-rule="evenodd" d="M64.9998 74.7307C65.0409 74.2723 66.011 71.7807 66.8478 70.0723C68.3466 66.7723 69.6296 63.3523 70.9555 63.4723C71.3805 63.4773 71.7527 63.709 72.0129 64.0957C72.4148 64.6957 72.8332 67.0107 72.9946 68.514L73.1774 69.7523C73.296 70.2573 73.3734 70.4973 73.7308 70.529C74.1525 70.5673 74.3699 69.9257 74.9727 68.6573C75.7798 66.9157 76.651 65.1757 77.3132 64.7057C77.5536 64.5623 77.7908 64.4857 78.1136 64.514C78.5995 64.5573 79.2056 65.0757 79.1068 65.8273C79.087 66.0573 78.9668 66.309 78.812 66.5923C77.3675 68.909 76.9113 69.9907 75.3285 73.5157C75.0023 74.2457 74.6334 75.1057 74.1558 76.084C73.9169 76.5607 73.5019 76.819 73.0489 76.779C72.5943 76.7373 72.1612 76.4673 71.8482 75.944C71.3376 75.0707 71.3656 74.0157 70.7035 69.6607C70.5816 69.2207 70.0645 69.1407 69.8355 69.5173C68.9165 71.0523 67.9579 73.4107 67.3633 74.9757C67.024 75.8723 66.464 76.284 65.7969 76.0573C65.2913 75.879 64.9454 75.3523 64.9998 74.7307Z" fill="#F3EEE7"/>
<path fill-rule="evenodd" clip-rule="evenodd" d="M85.1001 71.9425C85.4081 70.3108 85.4197 70.0475 85.1347 69.9342C84.4973 69.6058 82.9655 71.6375 83.262 72.2475C83.3773 72.5492 83.6343 72.5958 84.1877 72.6225C84.6423 72.6458 85.0112 72.4325 85.1001 71.9425ZM84.3837 75.9292C84.438 75.5025 84.1943 75.1275 83.7743 75.0742L81.7006 74.8708C81.3416 74.8525 81.106 75.0058 80.826 75.3875C80.1606 76.3442 79.3223 77.5225 79.0505 77.7392C78.614 78.0142 78.0623 77.9858 77.6538 77.6692C77.0559 77.2442 77.0592 76.5175 77.7575 75.5308L80.714 71.0642C81.946 69.1808 84.9239 65.5725 86.1279 64.9075C87.1985 64.3358 88.2164 64.8808 88.3218 66.0392C88.419 67.3942 86.9646 76.4542 86.543 77.7508C86.3519 78.3342 85.8166 78.6375 85.2352 78.5092C84.1383 78.2908 84.3145 77.3425 84.3837 75.9292Z" fill="#F3EEE7"/>
<path fill-rule="evenodd" clip-rule="evenodd" d="M89.8798 76.5145C89.7925 75.7878 90.9059 72.8428 92.0902 69.6012C92.5942 68.2245 93.1031 66.8495 93.5775 65.4412C93.953 64.2612 94.4438 63.8745 95.2229 64.0828C96.0332 64.2912 96.249 65.0195 95.8109 66.2628C94.9972 68.6212 94.1836 70.9462 93.6779 72.3545C93.1031 73.9595 92.8001 74.6462 93.253 74.8828C93.4786 75.0195 94.0008 74.9595 95.1405 74.7445C96.1535 74.5612 96.9968 74.6062 97.1153 75.5645C97.2026 76.1562 96.8699 76.7112 96.3149 76.8695C94.8111 77.3412 91.8118 77.9245 91.2271 77.8828C90.4464 77.8395 89.9984 77.3728 89.8798 76.5145Z" fill="#F3EEE7"/>
<path fill-rule="evenodd" clip-rule="evenodd" d="M107.991 75.284C108.457 73.179 109.159 67.2373 109.365 65.709C109.503 64.7123 109.93 64.1923 110.546 64.1557C111.39 64.139 111.926 64.9323 111.754 65.9323C111.626 67.0923 111.231 69.8207 111.269 70.5107C111.288 70.8373 111.69 71.0457 111.97 70.799C112.341 70.4473 113.069 69.514 113.54 69.2223C114.326 68.6807 115.18 68.8607 115.688 69.7223C116.152 70.454 116.159 72.2657 116.781 72.329C117.34 72.3957 117.992 70.7073 119.015 68.109C120.214 65.1373 120.721 63.1957 122.119 63.7073C122.622 63.9407 122.95 64.549 122.785 65.1173C122.553 66.154 118.25 76.3623 117.802 77.049C117.084 78.179 115.744 78.094 115.187 76.9057C114.777 76.0073 114.558 75.0307 114.339 74.0207C114.077 72.884 113.65 72.8107 112.888 73.7123C110.552 76.749 110.341 77.0573 110.157 77.2657C109.696 77.7223 109.182 77.8523 108.648 77.6523C107.948 77.364 107.706 76.554 107.991 75.284Z" fill="#F3EEE7"/>
<path fill-rule="evenodd" clip-rule="evenodd" d="M124.57 74.9277C124.457 73.8143 124.57 72.7093 124.686 71.6043C124.837 70.231 125.605 65.9427 125.847 65.1227C126.269 63.521 126.865 62.9293 128.131 62.861C130.301 62.6293 132.667 62.4127 132.905 63.7443C133.287 65.2277 130.976 65.341 129.164 65.2343C128.542 65.2343 128.196 65.371 128.103 66.0427C128.031 66.6127 127.919 67.121 127.843 67.6593C127.756 68.066 127.983 68.3727 128.444 68.391C129.849 68.3727 130.775 68.1443 131.022 69.276C131.246 70.8077 129.63 70.6827 128.029 71.0177C127.385 71.1193 127.174 71.306 127.074 71.9127C127.016 72.3177 127 72.7827 126.98 73.216C127.003 73.7427 127.291 74.0093 127.874 73.9477C129.914 73.731 131.062 72.8143 131.51 74.291C131.654 74.7393 131.445 75.2577 130.987 75.5727C130.497 75.8877 126.974 76.6277 126.552 76.671C125.345 76.6993 124.696 76.141 124.57 74.9277Z" fill="#F3EEE7"/>
<path fill-rule="evenodd" clip-rule="evenodd" d="M134.434 74.384C134.24 73.679 134.897 70.5957 135.579 67.2073C135.875 65.7707 136.168 64.334 136.425 62.8673C136.618 61.6423 137.048 61.184 137.847 61.2707C138.68 61.3523 139.005 62.039 138.758 63.3357C138.308 65.7923 137.853 68.2173 137.563 69.6873C137.236 71.3623 137.041 72.0873 137.524 72.2523C137.766 72.3507 138.275 72.2123 139.37 71.8257C140.342 71.489 141.184 71.4023 141.444 72.3307C141.62 72.9023 141.376 73.504 140.851 73.7423C139.436 74.4407 136.557 75.479 135.972 75.529C135.195 75.6057 134.681 75.2123 134.434 74.384Z" fill="#F3EEE7"/>
<path fill-rule="evenodd" clip-rule="evenodd" d="M143.319 73.1112C143.1 72.4145 143.65 69.3078 144.213 65.8995C144.457 64.4512 144.702 63.0045 144.908 61.5312C145.06 60.2995 145.471 59.8245 146.275 59.8828C147.11 59.9362 147.459 60.6095 147.257 61.9145C146.891 64.3878 146.522 66.8262 146.283 68.3045C146.015 69.9912 145.844 70.7228 146.333 70.8695C146.578 70.9595 147.081 70.8028 148.163 70.3778C149.121 70.0062 149.961 69.8895 150.253 70.8078C150.451 71.3745 150.225 71.9828 149.709 72.2428C148.319 72.9912 145.478 74.1295 144.895 74.1995C144.121 74.3045 143.594 73.9312 143.319 73.1112Z" fill="#F3EEE7"/>
<path fill-rule="evenodd" clip-rule="evenodd" d="M152.239 71.4657C152.137 71.0157 152.304 68.3457 152.58 66.459C153.005 62.8507 153.185 59.199 154.484 58.899C154.889 58.7723 155.313 58.8757 155.678 59.164C156.245 59.6073 157.345 61.684 157.956 63.0623L158.508 64.184C158.775 64.6273 158.921 64.8323 159.269 64.7523C159.681 64.6557 159.696 63.979 159.883 62.5857C160.12 60.6723 160.422 58.7473 160.909 58.0957C161.096 57.884 161.295 57.7373 161.611 57.664C162.087 57.554 162.823 57.8573 162.958 58.6023C163.008 58.8273 162.972 59.1057 162.909 59.424C162.237 62.0757 162.133 63.2473 161.697 67.0957C161.609 67.8907 161.519 68.824 161.362 69.9057C161.278 70.4323 160.964 70.8073 160.519 70.9107C160.076 71.014 159.58 70.889 159.124 70.489C158.373 69.819 158.078 68.8057 156.125 64.8673C155.874 64.4873 155.36 64.5707 155.255 64.999C154.848 66.7473 154.652 69.2907 154.562 70.9657C154.509 71.9223 154.102 72.4873 153.4 72.4807C152.864 72.4707 152.374 72.0757 152.239 71.4657Z" fill="#F3EEE7"/>
<path fill-rule="evenodd" clip-rule="evenodd" d="M166.284 67.6978C165.976 66.6228 165.895 65.5162 165.815 64.4078C165.722 63.0295 165.727 58.6762 165.821 57.8245C165.958 56.1745 166.437 55.4862 167.674 55.1895C169.766 54.5745 172.055 53.9362 172.521 55.2045C173.159 56.5945 170.904 57.1195 169.104 57.3412C168.491 57.4528 168.175 57.6478 168.201 58.3262C168.231 58.9012 168.211 59.4195 168.231 59.9612C168.214 60.3778 168.493 60.6395 168.947 60.5745C170.328 60.3062 171.196 59.9128 171.64 60.9828C172.129 62.4512 170.515 62.6162 168.998 63.2328C168.384 63.4478 168.211 63.6712 168.218 64.2845C168.234 64.6912 168.298 65.1545 168.353 65.5812C168.466 66.0978 168.797 66.3078 169.359 66.1428C171.329 65.5645 172.297 64.4578 172.996 65.8295C173.216 66.2445 173.104 66.7912 172.708 67.1812C172.281 67.5828 168.944 68.9395 168.537 69.0578C167.355 69.3045 166.618 68.8678 166.284 67.6978Z" fill="#F3EEE7"/>
<path fill-rule="evenodd" clip-rule="evenodd" d="M176.862 64.991C176.458 64.4377 176.473 63.6993 176.923 63.2193C177.344 62.751 177.85 62.7077 178.433 63.0893C179.123 63.5727 179.876 63.6477 180.68 63.286C182.31 62.5193 181.838 60.416 179.924 59.5027C179.029 59.1277 177.01 58.4993 176.443 58.0777C175.501 57.371 175.236 56.5227 175.539 55.4327C176.145 53.6377 178.191 51.7043 180.352 50.8827C181.179 50.581 181.749 50.7227 182.06 51.311C182.424 51.9477 182.17 52.4943 181.187 53.1327C180.375 53.5677 179.561 54.0043 178.878 54.7077C177.791 55.8377 177.903 56.146 179.281 56.6227C181.614 57.3493 182.936 58.4427 183.822 60.2543C184.644 61.9827 183.883 64.2193 182.147 65.271C180.413 66.3227 177.703 66.1893 176.862 64.991Z" fill="#F3EEE7"/>
<path fill-rule="evenodd" clip-rule="evenodd" d="M188.61 60.5933C188.16 60.0783 188.111 59.34 188.519 58.8233C188.899 58.32 189.399 58.2333 190.013 58.5633C190.743 58.985 191.499 58.995 192.271 58.5633C193.827 57.6567 193.18 55.6033 191.194 54.8617C190.273 54.565 188.206 54.1133 187.607 53.7417C186.607 53.12 186.269 52.2967 186.48 51.185C186.931 49.3433 188.806 47.24 190.891 46.2333C191.688 45.8617 192.268 45.955 192.627 46.5117C193.045 47.115 192.836 47.6817 191.912 48.4033C191.138 48.9067 190.365 49.4133 189.744 50.1733C188.758 51.3917 188.895 51.6917 190.309 52.0467C192.694 52.5683 194.104 53.5433 195.14 55.27C196.107 56.9217 195.539 59.2167 193.898 60.415C192.259 61.6117 189.548 61.715 188.61 60.5933Z" fill="#F3EEE7"/>
</svg>
