<svg width="23" height="24" viewBox="0 0 23 24" fill="none" xmlns="http://www.w3.org/2000/svg">
<g opacity="0.4518">
<mask id="mask0_1_130" style="mask-type:luminance" maskUnits="userSpaceOnUse" x="0" y="0" width="23" height="24">
<g opacity="0.4518">
<path d="M0 0.806152H22.6825V23.8529H0V0.806152Z" fill="white"/>
</g>
</mask>
<g mask="url(#mask0_1_130)">
<path fill-rule="evenodd" clip-rule="evenodd" d="M11.3026 21.7842C11.3026 21.768 11.3025 21.7527 11.3033 21.7374C12.2408 21.7374 13.1774 21.7584 14.1141 21.7317C15.0563 21.7043 16.0057 21.6825 16.9391 21.5624C18.3588 21.3793 19.4422 20.6446 20.06 19.2946C20.3947 18.5632 20.4986 17.7777 20.524 16.9809C20.5533 16.0688 20.589 15.1567 20.5834 14.2438C20.5723 11.9551 20.5493 9.6648 20.5073 7.37609C20.4938 6.62771 20.336 5.89383 20.0061 5.21803C19.4017 3.97932 18.3786 3.29545 17.066 3.09787C16.2127 2.96883 15.3426 2.92287 14.4789 2.91077C12.5255 2.88254 10.5721 2.87851 8.61948 2.90513C7.61462 2.91884 6.60103 2.95754 5.60648 3.09706C3.84024 3.34464 2.64503 4.48496 2.30241 6.25674C2.13665 7.114 2.09224 8.00432 2.0732 8.88093C2.03514 10.6503 2.04227 12.4204 2.051 14.1898C2.05734 15.518 2.02086 16.8511 2.24134 18.1672C2.44596 19.385 3.017 20.3793 4.08848 21.018C4.83241 21.4608 5.65962 21.6366 6.50903 21.6656C8.10634 21.7188 9.70445 21.7463 11.3026 21.7842ZM22.6828 12.3084C22.6566 13.8463 22.6431 15.3834 22.6011 16.9204C22.5678 18.1463 22.3822 19.3454 21.808 20.4479C20.9324 22.1317 19.55 23.1382 17.737 23.56C16.6385 23.8164 15.5171 23.8285 14.4004 23.8374C12.2503 23.8559 10.0994 23.864 7.9501 23.8261C6.97776 23.8092 5.99193 23.7551 5.03783 23.5761C2.42296 23.0842 0.638481 21.1954 0.207033 18.4914C0.0650672 17.6027 0.0158948 16.6914 0.00875687 15.789C-0.0110707 13.2269 0.00637756 10.664 0.025412 8.1019C0.03255 7.23658 0.100757 6.37448 0.329171 5.53335C0.973171 3.16722 2.47452 1.69948 4.80941 1.1019C5.7881 0.851093 6.79138 0.820448 7.7891 0.814803C10.2858 0.79948 12.7825 0.805125 15.2792 0.826899C16.4387 0.836577 17.5927 0.933351 18.6903 1.36964C20.4811 2.08013 21.6478 3.37932 22.2276 5.23496C22.5028 6.1148 22.5971 7.02287 22.609 7.93658C22.6281 9.39303 22.6146 10.8511 22.6146 12.3084C22.6376 12.3084 22.6598 12.3084 22.6828 12.3084Z" fill="white"/>
</g>
<path fill-rule="evenodd" clip-rule="evenodd" d="M9.15841 16.294C9.15841 15.0932 9.15444 13.8924 9.16158 12.6916C9.16316 12.4536 9.08227 12.3633 8.84513 12.3746C8.5152 12.3891 8.18368 12.3706 7.85296 12.377C7.68085 12.3803 7.59123 12.3286 7.5928 12.1343C7.59837 11.3899 7.59758 10.6456 7.5928 9.90123C7.59123 9.70768 7.67213 9.62542 7.85772 9.62784C8.17337 9.63026 8.48823 9.62784 8.80309 9.62542C9.14572 9.623 9.15444 9.61413 9.15841 9.25607C9.16554 8.71978 9.16078 8.18268 9.17744 7.6472C9.19568 7.07623 9.26468 6.51252 9.53037 5.99478C9.93168 5.21575 10.6026 4.77058 11.4243 4.68107C12.4466 4.56978 13.4816 4.58994 14.5111 4.55204C14.6649 4.54639 14.7189 4.62704 14.7189 4.77381C14.7173 5.56655 14.7165 6.35929 14.7197 7.15204C14.7204 7.33349 14.6102 7.35929 14.4714 7.35929C14.0693 7.3601 13.6688 7.35929 13.2667 7.36333C13.1168 7.36494 12.9669 7.36897 12.8194 7.38913C12.5521 7.42623 12.4109 7.55204 12.3951 7.8222C12.3649 8.36494 12.3641 8.90929 12.3483 9.45365C12.3451 9.6222 12.4569 9.61816 12.5719 9.62058C13.1541 9.63026 13.7362 9.63429 14.3191 9.65526C14.6729 9.66736 14.7062 9.69639 14.6824 10.0504C14.6356 10.7286 14.5634 11.4045 14.5103 12.0819C14.4952 12.277 14.3992 12.3351 14.22 12.3367C13.7076 12.3424 13.1969 12.3593 12.6845 12.3746C12.3633 12.3843 12.3491 12.3972 12.3491 12.7174C12.3475 14.9028 12.3483 17.0891 12.3475 19.2746C12.3475 19.4988 12.338 19.723 12.3451 19.9472C12.3514 20.1843 12.2372 20.2786 12.016 20.2786C11.4092 20.2778 10.8033 20.2811 10.1974 20.2827C9.97609 20.2835 9.7564 20.2827 9.53592 20.2835C9.20678 20.2843 9.15841 20.244 9.15682 19.9206C9.15206 19.1512 9.15285 18.3835 9.15206 17.6149V16.294H9.15841Z" fill="white"/>
</g>
</svg>
