<svg width="22" height="24" viewBox="0 0 22 24" fill="none" xmlns="http://www.w3.org/2000/svg">
<g opacity="0.4518">
<mask id="mask0_1_120" style="mask-type:luminance" maskUnits="userSpaceOnUse" x="0" y="0" width="22" height="24">
<g opacity="0.4518">
<path d="M0 0.800293H21.5021V23.4853H0V0.800293Z" fill="white"/>
</g>
</mask>
<g mask="url(#mask0_1_120)">
<path fill-rule="evenodd" clip-rule="evenodd" d="M19.5959 12.1395C19.5959 10.5011 19.5966 8.86349 19.5951 7.22509C19.5943 6.70669 19.5465 6.19469 19.3804 5.70189C18.7728 3.89869 17.301 2.81309 15.4409 2.81069C12.3139 2.80673 9.18606 2.80109 6.05903 2.82029C5.59096 2.82269 5.10165 2.89069 4.66013 3.04749C2.94034 3.65549 1.91241 5.22749 1.91013 7.18509C1.90558 10.4835 1.90786 13.7819 1.91013 17.0795C1.91013 17.5907 1.96324 18.0947 2.12861 18.5803C2.73475 20.3659 4.19358 21.4547 6.03096 21.4595C9.17999 21.4683 12.3283 21.4659 15.4765 21.4595C16.8868 21.4571 18.0232 20.8619 18.8547 19.6547C19.3834 18.8883 19.5974 18.0155 19.5966 17.0755C19.5943 15.4299 19.5959 13.7851 19.5959 12.1395ZM5.50372 0.800293H16.0015C16.2208 0.837093 16.443 0.861093 16.66 0.912293C19.0959 1.48989 20.6572 3.04509 21.3255 5.58349C21.4135 5.91469 21.4446 6.26109 21.5023 6.60109V17.6715C21.4886 17.7499 21.4803 17.8307 21.4613 17.9075C21.3164 18.4979 21.2474 19.1251 21.0084 19.6699C19.938 22.1155 18.0968 23.4227 15.5403 23.4603C12.3495 23.5075 9.15799 23.4739 5.96648 23.4707C4.72993 23.4691 3.58517 23.1179 2.5762 22.3595C0.867029 21.0747 0.010546 19.3059 0.00523567 17.0931C-0.00310916 13.7875 -0.0008333 10.4811 0.00751153 7.17469C0.00902877 6.74909 0.0302702 6.31309 0.115994 5.89949C0.653098 3.33149 2.13544 1.69149 4.53724 0.985893C4.8513 0.893893 5.1813 0.860293 5.50372 0.800293Z" fill="white"/>
</g>
<path fill-rule="evenodd" clip-rule="evenodd" d="M14.3814 12.1335C14.3784 10.0215 12.7496 8.30552 10.7507 8.30871C8.74715 8.31272 7.12067 10.0303 7.1237 12.1383C7.12674 14.2503 8.7555 15.9663 10.7552 15.9631C12.7572 15.9599 14.3852 14.2407 14.3814 12.1335ZM16.2932 12.1335C16.2962 15.3407 13.7912 17.9823 10.7499 17.9783C7.70329 17.9743 5.20136 15.3319 5.21195 12.1271C5.2226 8.91912 7.70253 6.30312 10.7446 6.29349C13.7829 6.28312 16.2901 8.92152 16.2932 12.1335Z" fill="white"/>
<path fill-rule="evenodd" clip-rule="evenodd" d="M16.6632 4.59666C17.2937 4.61586 17.8042 5.17106 17.7852 5.81746C17.7648 6.49906 17.2352 7.02706 16.595 7.00466C15.9797 6.98226 15.473 6.42146 15.4897 5.78226C15.5086 5.10946 16.0343 4.57826 16.6632 4.59666Z" fill="white"/>
</g>
</svg>
