<svg width="213" height="26" viewBox="0 0 213 26" fill="none" xmlns="http://www.w3.org/2000/svg">
<mask id="mask0_1_36" style="mask-type:luminance" maskUnits="userSpaceOnUse" x="0" y="7" width="19" height="15">
<path d="M0.0341797 7.10577H18.0107V21.0591H0.0341797V7.10577Z" fill="white"/>
</mask>
<g mask="url(#mask0_1_36)">
<path fill-rule="evenodd" clip-rule="evenodd" d="M9.00495 18.7418C5.59835 18.7418 3.03679 17.2045 3.03679 14.1057C3.03679 10.9609 5.59835 9.42308 9.00495 9.42308C12.4386 9.42308 15.0002 10.9609 15.0002 14.1057C15.0002 17.2045 12.4386 18.7418 9.00495 18.7418ZM9.00495 7.10577C3.40659 7.10577 0 9.80173 0 14.1057C0 18.3869 3.40659 21.0591 9.00495 21.0591C14.6304 21.0591 18.011 18.3869 18.011 14.1057C18.011 9.80173 14.6304 7.10577 9.00495 7.10577Z" fill="#FFFFFE"/>
</g>
<path fill-rule="evenodd" clip-rule="evenodd" d="M23.5874 16.7091L27.4909 13.838L33.3069 20.2029H36.8651L29.7487 12.2826L36.4405 7.08993H32.6164L23.5874 14.0055V0.943665H20.4805V20.2029H23.5874V16.7091Z" fill="#FFFFFE"/>
<mask id="mask1_1_36" style="mask-type:luminance" maskUnits="userSpaceOnUse" x="38" y="7" width="36" height="19">
<path d="M38.3916 7.1441H73.5094V25.9486H38.3916V7.1441Z" fill="white"/>
</mask>
<g mask="url(#mask1_1_36)">
<path fill-rule="evenodd" clip-rule="evenodd" d="M41.344 16.8567C41.344 14.6985 44.1425 14.2326 46.0168 14.2326C48.122 14.2326 50.5105 14.7964 51.64 16.6609V17.0776C50.5105 18.9169 48.122 19.5059 46.0168 19.5059C44.1425 19.5059 41.344 19.0399 41.344 16.8567ZM51.5879 19.1624V19.187C51.5879 19.8247 51.7677 20.4865 52.1278 21.0755H55.2342C54.7722 20.2907 54.5924 19.4813 54.5924 18.4755V13.5949C54.5924 9.37604 51.5879 7.1441 46.6844 7.1441C44.1425 7.1441 41.4471 7.80641 39.7009 8.81217L40.779 10.7493C42.3963 9.84201 44.04 9.40065 46.1193 9.40065C49.7399 9.40065 51.5879 10.7006 51.5879 13.5949V14.576C50.4847 13.2755 48.3275 12.1718 45.4518 12.1718C42.4221 12.1718 38.3916 13.3499 38.3916 16.8567C38.3916 20.3886 42.4221 21.5661 45.4518 21.5661C48.3275 21.5661 50.4847 20.4624 51.5879 19.1624Z" fill="#FFFFFE"/>
</g>
<mask id="mask2_1_36" style="mask-type:luminance" maskUnits="userSpaceOnUse" x="38" y="7" width="36" height="19">
<path d="M38.3916 7.1441H73.5094V25.9486H38.3916V7.1441Z" fill="white"/>
</mask>
<g mask="url(#mask2_1_36)">
<path fill-rule="evenodd" clip-rule="evenodd" d="M59.7489 25.9808H62.8811L73.5098 7.6347H70.3524L64.8059 17.4457L59.1581 7.6347H55.9229L63.2658 20.1923L59.7489 25.9808Z" fill="#FFFFFE"/>
</g>
<path fill-rule="evenodd" clip-rule="evenodd" d="M93.7162 6.61131C90.7425 6.61131 88.3526 7.76009 87.0777 9.62599V0.943665H83.9707V20.2029H87.0777V12.1386C88.3259 9.98508 90.4233 8.93234 92.9198 8.93234C95.8147 8.93234 97.275 10.3202 97.275 12.9042V20.2029H100.355V12.7132C100.355 9.17139 98.1514 6.61131 93.7162 6.61131Z" fill="#FFFFFE"/>
<path fill-rule="evenodd" clip-rule="evenodd" d="M117.729 15.6829C116.481 17.8189 114.383 18.8631 111.887 18.8631C108.992 18.8631 107.532 17.4866 107.532 14.9234V7.68439H104.451V15.1134C104.451 18.626 106.656 21.1659 111.09 21.1659C114.064 21.1659 116.454 20.0264 117.729 18.1751V20.6911H120.836V7.68439H117.729V15.6829Z" fill="#FFFFFE"/>
<path fill-rule="evenodd" clip-rule="evenodd" d="M146.435 6.72144C143.4 6.72144 140.941 8.14563 139.895 10.3288C139.162 8.19274 137.331 6.72144 134.114 6.72144C131.368 6.72144 129.118 7.88419 127.993 9.71168V7.19617H124.933V20.2029H127.993V12.133C129.066 10.1393 130.792 9.02366 133.198 9.02366C135.997 9.02366 137.253 10.495 137.253 12.8924V20.2029H140.287L140.261 18.2564V12.2277C141.334 10.1631 143.112 9.02366 145.519 9.02366C148.318 9.02366 149.573 10.495 149.573 12.8924V20.2029H152.582V12.7263C152.582 9.35602 150.75 6.72144 146.435 6.72144Z" fill="#FFFFFE"/>
<path fill-rule="evenodd" clip-rule="evenodd" d="M169.347 16.6704C168.179 18.5125 165.711 19.1025 163.535 19.1025C161.598 19.1025 158.705 18.6352 158.705 16.4491C158.705 14.2871 161.598 13.8204 163.535 13.8204C165.711 13.8204 168.179 14.3857 169.347 16.2525V16.6704ZM172.399 13.1817C172.399 8.95685 169.294 6.72144 164.225 6.72144C161.598 6.72144 158.812 7.38424 157.007 8.3921L158.121 10.3323C159.793 9.42354 161.492 8.98149 163.641 8.98149C167.383 8.98149 169.294 10.2835 169.294 13.1817V14.1649C168.153 12.8624 165.923 11.757 162.952 11.757C159.819 11.757 155.653 12.9363 155.653 16.4491C155.653 19.9866 159.819 21.1659 162.952 21.1659C165.923 21.1659 168.153 20.06 169.294 18.7579V18.7826C169.294 19.4213 169.479 20.0846 169.852 20.6745H173.062C172.585 19.888 172.399 19.0778 172.399 18.0705V13.1817Z" fill="#FFFFFE"/>
<path fill-rule="evenodd" clip-rule="evenodd" d="M186.904 6.72144C183.93 6.72144 181.54 7.8609 180.265 9.71168V7.19617H177.158V20.2029H180.265V12.2039C181.513 10.0679 183.611 9.02366 186.108 9.02366C189.002 9.02366 190.462 10.4002 190.462 12.9634V20.2029H193.543V12.7739C193.543 9.26076 191.339 6.72144 186.904 6.72144Z" fill="#FFFFFE"/>
<path fill-rule="evenodd" clip-rule="evenodd" d="M205.32 12.5726C202.375 12.4012 200.087 12.1566 200.087 10.7858C200.087 9.31673 202.796 8.94933 204.742 8.94933C207.372 8.97389 209.291 9.70815 210.686 10.7121L212.29 8.8516C210.607 7.70081 207.845 6.72144 204.899 6.72144C200.06 6.72144 197.167 8.33735 197.167 10.9567C197.167 13.8211 200.902 14.6782 204.821 14.9479C208.213 15.1924 210.081 15.6084 210.081 16.9547C210.081 18.3014 208.029 18.938 205.373 18.938C202.296 18.938 199.955 18.0569 198.272 16.7101L196.615 18.3997C198.692 20.0888 201.77 21.1659 205.294 21.1659C210.37 21.1659 213 19.2077 213 16.7101C213 13.9925 209.739 12.8663 205.32 12.5726Z" fill="#FFFFFE"/>
</svg>
