<svg width="75" height="130" viewBox="0 0 75 130" fill="none" xmlns="http://www.w3.org/2000/svg">
<path fill-rule="evenodd" clip-rule="evenodd" d="M16.5339 66.4553C16.5339 54.4767 16.5168 42.4977 16.5466 30.5191C16.5535 27.7691 16.7183 25.0194 16.8158 22.2698C16.8415 21.5587 16.9162 21.1347 17.8623 20.8468C21.8703 19.626 26.0003 19.4047 30.1099 19.0179C39.8403 18.1025 49.5988 18.2729 59.3516 18.373C61.0619 18.3908 62.7713 18.7354 64.4751 18.9761C65.1948 19.0779 65.8063 19.3861 65.8753 20.2751C66.2363 24.9048 66.8418 29.5288 66.925 34.1631C67.1066 44.3133 67.067 54.4685 67.0396 64.6215C67.0131 74.4788 66.7932 84.337 66.8548 94.1934C66.8781 97.9723 67.4219 101.751 67.7773 105.525C67.9319 107.176 67.7997 107.4 66.2225 107.341C58.5279 107.053 50.8346 106.718 43.1384 106.479C36.4112 106.27 29.7379 106.952 23.0841 107.903C21.7847 108.089 20.451 108.012 19.1352 108.093C18.6383 108.124 18.134 108.213 17.6575 108.359C16.8721 108.599 16.4429 108.319 16.3397 107.527C16.2875 107.124 16.3091 106.71 16.3091 106.301C16.3079 93.019 16.3083 79.737 16.3083 66.4549C16.3834 66.4553 16.4584 66.4553 16.5339 66.4553Z" fill="#E7E1D9"/>
<mask id="mask0_8_241" style="mask-type:luminance" maskUnits="userSpaceOnUse" x="0" y="0" width="75" height="130">
<path d="M0 0.179565H74.8085V129.587H0V0.179565Z" fill="white"/>
</mask>
<g mask="url(#mask0_8_241)">
<path fill-rule="evenodd" clip-rule="evenodd" d="M14.2093 126.393C14.2007 126.433 14.1913 126.472 14.1827 126.512C14.488 126.61 14.7864 126.758 15.0991 126.798C18.6315 127.251 22.1556 127.873 25.7028 128.077C29.5556 128.298 33.4331 128.042 37.2962 128.143C47.0261 128.397 56.7294 127.924 66.4261 127.209C66.8934 127.174 67.4565 127.124 67.7917 126.852C69.4618 125.498 70.9319 124.002 71.6901 121.864C72.5265 119.505 72.6823 117.075 72.722 114.634C72.7852 110.774 72.6983 106.914 72.7196 103.054C72.7921 89.9162 72.8868 76.7792 72.9646 63.6417C72.97 62.7152 72.9048 61.7883 72.877 60.8618C72.7192 55.597 72.4097 50.3318 72.4413 45.0687C72.4872 37.4288 72.8257 29.7914 72.9458 22.1511C73.0011 18.6312 72.9122 15.1034 72.7434 11.5864C72.6052 8.71075 71.2823 6.64024 69.197 5.68278C69.3495 6.06081 69.4602 6.36373 69.5921 6.65675C71.0626 9.92821 71.5958 13.3515 71.479 16.9387C71.2069 25.2822 70.9245 33.6278 70.8429 41.9742C70.7311 53.4031 70.8852 64.8344 70.7704 76.2629C70.6466 88.5435 70.3667 100.823 70.0905 113.102C70.0532 114.756 69.7798 116.438 69.3696 118.044C68.477 121.539 66.7319 124.269 62.7032 124.58C60.8065 124.726 58.9097 124.877 57.0155 125.051C53.3171 125.392 49.6245 125.824 45.9204 126.082C42.2479 126.336 38.554 126.306 34.8872 126.612C30.0306 127.017 25.1835 127.225 20.3204 126.861C18.2827 126.709 16.2462 126.549 14.2093 126.393ZM3.03516 90.5307C3.03516 93.11 2.96549 98.1206 3.05688 103.128C3.1327 107.275 3.33311 111.421 3.60196 115.56C3.79212 118.49 5.20483 120.86 7.76958 122.24C9.53065 123.188 11.4819 124.04 13.4331 124.311C17.252 124.842 21.1286 125.128 24.9839 125.159C28.7667 125.19 32.5507 124.751 36.3364 124.568C42.9155 124.249 49.4962 123.972 56.0753 123.667C59.2339 123.521 62.2593 122.867 65.0671 121.317C66.0655 120.766 66.7979 120.06 67.011 118.917C67.3233 117.244 67.7597 115.573 67.8593 113.884C68.0622 110.443 68.0974 106.992 68.1622 103.543C68.3298 94.5314 68.5274 85.5197 68.6179 76.5072C68.7319 65.1167 68.7409 53.7258 68.8216 42.3349C68.8393 39.8505 68.9909 37.3665 69.0454 34.8816C69.2126 27.2087 69.4413 19.5362 69.4916 11.8625C69.5241 6.77726 66.502 3.22764 61.5179 2.29205C59.6089 1.93424 57.6438 1.71799 55.7044 1.7166C48.5216 1.71262 41.3376 1.7931 34.1552 1.90164C26.2077 2.02173 18.2483 1.77081 10.3233 2.68741C8.16548 2.93668 5.9577 3.03697 4.67532 5.10789C3.97081 6.2457 3.27532 7.55272 3.12614 8.84776C2.5663 13.7007 1.85237 18.5837 1.88803 23.4503C1.99008 37.3578 1.73885 51.2707 2.5577 65.1749C3.00647 72.7987 2.86835 80.4567 3.03516 90.5307ZM1.0745 89.3252C0.925322 81.1121 1.02327 74.3108 0.632289 67.538C-0.159925 53.8199 0.0187641 40.0965 0.0142559 26.3734C0.0126166 20.6976 0.231469 15.0271 1.35893 9.43627C1.93926 6.56018 3.06917 4.065 5.91876 2.75757C6.82614 2.34116 7.69663 1.92722 8.75852 2.36592C9.15565 2.52935 9.70114 2.35891 10.1741 2.30154C13.6741 1.881 17.1643 1.19551 20.6737 1.06922C32.1204 0.657764 43.5737 0.422526 55.0261 0.1877C57.0413 0.146843 59.0958 0.252907 61.0753 0.611541C65.1372 1.34821 68.7216 3.233 71.8491 5.92214C73.4413 7.29148 74.1606 9.26046 74.2315 11.2794C74.4638 17.9102 74.6003 24.5468 74.6347 31.1818C74.6577 35.5196 74.3179 39.8592 74.3573 44.1966C74.427 51.874 74.7536 59.549 74.8011 67.2268C74.8479 74.7202 74.6638 82.2148 74.6122 89.709C74.5573 97.724 74.5626 105.739 74.4921 113.754C74.4647 116.866 74.5302 120.039 73.1503 122.923C72.4134 124.464 71.4356 125.928 70.3569 127.254C69.3364 128.508 67.7171 128.659 66.2036 128.755C61.3917 129.06 56.5794 129.445 51.7618 129.553C46.7925 129.665 41.8167 129.471 36.8442 129.444C32.9032 129.421 28.9626 129.467 25.022 129.449C20.9454 129.43 16.9458 128.843 13.0843 127.51C9.10196 126.135 5.91753 123.49 3.29663 120.328C2.21426 119.023 1.82573 116.931 1.61631 115.138C1.23967 111.908 1.13803 108.635 1.09581 105.378C1.0204 99.5535 1.0745 93.7279 1.0745 89.3252Z" fill="#02374E"/>
</g>
<path fill-rule="evenodd" clip-rule="evenodd" d="M13.4401 16.511V102.599C29.424 99.0427 45.2574 99.5474 61.1536 100.478C61.1267 100.17 61.1136 99.8775 61.0737 99.5895C60.2993 93.979 60.077 88.339 60.172 82.6809C60.3952 69.4067 60.7053 56.1338 60.8056 42.8587C60.8583 35.9116 60.5539 28.962 60.3862 22.0145C60.3381 20.0202 60.2038 18.0288 60.0953 15.7486C44.4006 14.3604 28.7888 14.4212 13.4401 16.511ZM11.9685 61.8825C11.9685 49.9035 11.9514 37.9249 11.9811 25.9464C11.9877 23.1959 12.1529 20.4467 12.2504 17.6966C12.2757 16.9855 12.3508 16.5619 13.2965 16.274C17.3049 15.0533 21.4349 14.8315 25.5445 14.4452C35.2749 13.5297 45.0334 13.7001 54.7863 13.7998C56.4961 13.8176 58.2064 14.1622 59.9093 14.403C60.6294 14.5043 61.2405 14.8133 61.3099 15.7023C61.6714 20.3317 62.276 24.956 62.3592 29.5899C62.5412 39.7401 62.5016 49.8957 62.4743 60.0487C62.4473 69.906 62.2278 79.7637 62.289 89.6202C62.3131 93.3994 62.8565 97.1779 63.2115 100.952C63.3669 102.604 63.2343 102.827 61.6571 102.768C53.9621 102.479 46.2692 102.145 38.573 101.906C31.8454 101.697 25.1724 102.379 18.5182 103.33C17.2192 103.516 15.8851 103.439 14.5698 103.52C14.0729 103.551 13.5682 103.641 13.0921 103.786C12.3067 104.026 11.8775 103.746 11.7743 102.954C11.7221 102.551 11.7437 102.137 11.7437 101.728C11.7425 88.4458 11.7429 75.1641 11.7429 61.8821C11.8179 61.8821 11.893 61.8825 11.9685 61.8825Z" fill="#02374E"/>
<path fill-rule="evenodd" clip-rule="evenodd" d="M31.9415 113.325C31.9877 113.563 32.0091 113.908 32.1223 114.214C32.6631 115.676 34.2304 116.737 35.6013 116.598C37.2958 116.428 38.8491 115.152 39.1706 113.601C39.2585 113.177 39.2981 112.665 39.1586 112.278C38.7834 111.236 38.3973 110.171 37.8351 109.243C37.0244 107.905 35.9241 107.632 34.564 108.309C32.6308 109.272 32.1495 111.166 31.9415 113.325ZM36.1181 107.136C37.8129 107.279 39.2635 109.147 40.4852 111.243C41.4689 112.932 41.1699 114.695 40.143 116.234C38.8708 118.14 37.0559 119.077 34.8793 118.865C32.7148 118.655 31.1829 117.343 30.3407 115.191C28.9892 111.738 31.8101 107.133 36.1181 107.136Z" fill="#02374E"/>
<path fill-rule="evenodd" clip-rule="evenodd" d="M30.2706 7.47464C32.7115 9.61356 42.1674 9.40643 43.9275 7.16926C43.5225 7.03226 43.167 6.84553 42.7936 6.7966C40.0691 6.4378 37.3482 5.99665 34.6108 5.8095C33.0145 5.70023 31.5534 6.40274 30.2706 7.47464ZM38.0711 4.57288C40.0274 4.87622 41.9906 5.14287 43.9368 5.50045C44.7806 5.65538 45.7013 6.11285 45.6499 7.05387C45.6127 7.73314 45.0913 8.54695 44.5428 9.00523C43.0784 10.228 41.222 10.5346 39.4089 10.4347C36.9223 10.2981 34.4506 9.88877 31.9737 9.58583C31.7245 9.55525 31.4761 9.4733 31.2411 9.38034C30.4045 9.04845 29.4082 8.82054 29.3503 7.6838C29.2904 6.5169 30.2564 6.22742 31.1056 5.89308C33.3341 5.01566 35.6431 4.67032 38.0339 4.87663C38.0464 4.77551 38.0586 4.6744 38.0711 4.57288Z" fill="#02374E"/>
</svg>
