<svg width="448" height="435" viewBox="0 0 448 435" fill="none" xmlns="http://www.w3.org/2000/svg">
<path d="M10.1471 425.232L10.147 425.232L3.0759 432.303L3.076 432.303L10.1471 425.232Z" stroke="#F3ECE7"/>
<path d="M445.654 2.75541L445.654 2.75531L438.583 9.82638L438.583 9.82647L445.654 2.75541Z" stroke="#F3ECE7"/>
<path d="M438.585 425.241L438.585 425.241L445.657 432.312L445.656 432.312L438.585 425.241Z" stroke="#F3ECE7"/>
<path fill-rule="evenodd" clip-rule="evenodd" d="M18.349 0.530884H17.3513V10.5309H18.349V0.530884ZM24.3353 0.530884H23.3376V10.5309H24.3353V0.530884ZM30.3216 0.530884H29.3239V10.5309H30.3216V0.530884ZM36.3079 0.530884H35.3102V10.5309H36.3079V0.530884ZM42.2942 0.530884H41.2965V10.5309H42.2942V0.530884ZM48.2805 0.530884H47.2828V10.5309H48.2805V0.530884ZM54.2668 0.530884H53.2691V10.5309H54.2668V0.530884ZM60.2531 0.530884H59.2554V10.5309H60.2531V0.530884ZM66.2394 0.530884H65.2417V10.5309H66.2394V0.530884ZM72.2257 0.530884H71.228V10.5309H72.2257V0.530884ZM78.212 0.530884H77.2143V10.5309H78.212V0.530884ZM84.1983 0.530884H83.2006V10.5309H84.1983V0.530884ZM90.1846 0.530884H89.1869V10.5309H90.1846V0.530884ZM96.1709 0.530884H95.1732V10.5309H96.1709V0.530884ZM102.157 0.530884H101.159V10.5309H102.157V0.530884ZM108.144 0.530884H107.146V10.5309H108.144V0.530884ZM114.13 0.530884H113.132V10.5309H114.13V0.530884ZM120.116 0.530884H119.118V10.5309H120.116V0.530884ZM126.102 0.530884H125.105V10.5309H126.102V0.530884ZM132.089 0.530884H131.091V10.5309H132.089V0.530884ZM138.075 0.530884H137.077V10.5309H138.075V0.530884ZM144.061 0.530884H143.064V10.5309H144.061V0.530884ZM150.048 0.530884H149.05V10.5309H150.048V0.530884ZM156.034 0.530884H155.036V10.5309H156.034V0.530884ZM162.02 0.530884H161.022V10.5309H162.02V0.530884ZM168.006 0.530884H167.009V10.5309H168.006V0.530884ZM173.993 0.530884H172.995V10.5309H173.993V0.530884ZM179.979 0.530884H178.981V10.5309H179.979V0.530884ZM185.965 0.530884H184.968V10.5309H185.965V0.530884ZM191.952 0.530884H190.954V10.5309H191.952V0.530884ZM197.938 0.530884H196.94V10.5309H197.938V0.530884ZM203.924 0.530884H202.927V10.5309H203.924V0.530884ZM209.911 0.530884H208.913V10.5309H209.911V0.530884ZM215.897 0.530884H214.899V10.5309H215.897V0.530884ZM221.883 0.530884H220.885V10.5309H221.883V0.530884ZM227.869 0.530884H226.872V10.5309H227.869V0.530884ZM233.856 0.530884H232.858V10.5309H233.856V0.530884ZM239.842 0.530884H238.844V10.5309H239.842V0.530884ZM245.828 0.530884H244.831V10.5309H245.828V0.530884ZM251.815 0.530884H250.817V10.5309H251.815V0.530884ZM257.801 0.530884H256.803V10.5309H257.801V0.530884ZM263.787 0.530884H262.79V10.5309H263.787V0.530884ZM269.774 0.530884H268.776V10.5309H269.774V0.530884ZM275.76 0.530884H274.762V10.5309H275.76V0.530884ZM281.746 0.530884H280.748V10.5309H281.746V0.530884ZM287.732 0.530884H286.735V10.5309H287.732V0.530884ZM293.719 0.530884H292.721V10.5309H293.719V0.530884ZM299.705 0.530884H298.707V10.5309H299.705V0.530884ZM305.691 0.530884H304.694V10.5309H305.691V0.530884ZM311.678 0.530884H310.68V10.5309H311.678V0.530884ZM317.664 0.530884H316.666V10.5309H317.664V0.530884ZM323.65 0.530884H322.652V10.5309H323.65V0.530884ZM329.637 0.530884H328.639V10.5309H329.637V0.530884ZM335.623 0.530884H334.625V10.5309H335.623V0.530884ZM341.609 0.530884H340.611V10.5309H341.609V0.530884ZM347.595 0.530884H346.598V10.5309H347.595V0.530884ZM353.582 0.530884H352.584V10.5309H353.582V0.530884ZM359.568 0.530884H358.57V10.5309H359.568V0.530884ZM365.554 0.530884H364.557V10.5309H365.554V0.530884ZM371.541 0.530884H370.543V10.5309H371.541V0.530884ZM377.527 0.530884H376.529V10.5309H377.527V0.530884ZM383.513 0.530884H382.516V10.5309H383.513V0.530884ZM389.5 0.530884H388.502V10.5309H389.5V0.530884ZM395.486 0.530884H394.488V10.5309H395.486V0.530884ZM401.472 0.530884H400.474V10.5309H401.472V0.530884ZM407.458 0.530884H406.461V10.5309H407.458V0.530884ZM413.445 0.530884H412.447V10.5309H413.445V0.530884ZM419.431 0.530884H418.433V10.5309H419.431V0.530884ZM425.417 0.530884H424.42V10.5309H425.417V0.530884ZM431.404 0.530884H430.406V10.5309H431.404V0.530884ZM447.877 17.9721V16.9768H437.877V17.9721H447.877ZM0.877441 16.9769V17.9722H10.8774V16.9769H0.877441ZM447.877 23.944V22.9487H437.877V23.944H447.877ZM0.877441 22.9487V23.944H10.8774V22.9487H0.877441ZM447.877 29.9158V28.9205H437.877V29.9158H447.877ZM0.877441 28.9206V29.9159H10.8774V28.9206H0.877441ZM447.877 35.8876V34.8923H437.877V35.8876H447.877ZM0.877441 34.8924V35.8877H10.8774V34.8924H0.877441ZM447.877 41.8595V40.8642H437.877V41.8595H447.877ZM0.877441 40.8642V41.8595H10.8774V40.8642H0.877441ZM447.877 47.8313V46.836H437.877V47.8313H447.877ZM0.877441 46.836V47.8314H10.8774V46.836H0.877441ZM447.877 53.8031V52.8078H437.877V53.8031H447.877ZM0.877441 52.8079V53.8032H10.8774V52.8079H0.877441ZM447.877 59.775V58.7797H437.877V59.775H447.877ZM0.877441 58.7797V59.775H10.8774V58.7797H0.877441ZM447.877 65.7468V64.7515H437.877V65.7468H447.877ZM0.877441 64.7515V65.7468H10.8774V64.7515H0.877441ZM447.877 71.7186V70.7233H437.877V71.7186H447.877ZM0.877441 70.7234V71.7187H10.8774V70.7234H0.877441ZM447.877 77.6904V76.6952H437.877V77.6904H447.877ZM0.877441 76.6952V77.6905H10.8774V76.6952H0.877441ZM447.877 83.6623V82.667H437.877V83.6623H447.877ZM0.877441 82.667V83.6623H10.8774V82.667H0.877441ZM447.877 89.6341V88.6388H437.877V89.6341H447.877ZM0.877441 88.6389V89.6342H10.8774V88.6389H0.877441ZM447.877 95.606V94.6107H437.877V95.606H447.877ZM0.877441 94.6107V95.606H10.8774V94.6107H0.877441ZM447.877 101.578V100.582H437.877V101.578H447.877ZM0.877441 100.583V101.578H10.8774V100.583H0.877441ZM447.877 107.55V106.554H437.877V107.55H447.877ZM0.877441 106.554V107.55H10.8774V106.554H0.877441ZM447.877 113.521V112.526H437.877V113.521H447.877ZM0.877441 112.526V113.521H10.8774V112.526H0.877441ZM447.877 119.493V118.498H437.877V119.493H447.877ZM0.877441 118.498V119.493H10.8774V118.498H0.877441ZM447.877 125.465V124.47H437.877V125.465H447.877ZM0.877441 124.47V125.465H10.8774V124.47H0.877441ZM447.877 131.437V130.442H437.877V131.437H447.877ZM0.877441 130.442V131.437H10.8774V130.442H0.877441ZM447.877 137.409V136.413H437.877V137.409H447.877ZM0.877441 136.414V137.409H10.8774V136.414H0.877441ZM447.877 143.381V142.385H437.877V143.381H447.877ZM0.877441 142.385V143.381H10.8774V142.385H0.877441ZM447.877 149.352V148.357H437.877V149.352H447.877ZM0.877441 148.357V149.352H10.8774V148.357H0.877441ZM447.877 155.324V154.329H437.877V155.324H447.877ZM0.877441 154.329V155.324H10.8774V154.329H0.877441ZM447.877 161.296V160.301H437.877V161.296H447.877ZM0.877441 160.301V161.296H10.8774V160.301H0.877441ZM447.877 167.268V166.273H437.877V167.268H447.877ZM0.877441 166.273V167.268H10.8774V166.273H0.877441ZM447.877 173.24V172.244H437.877V173.24H447.877ZM0.877441 172.245V173.24H10.8774V172.245H0.877441ZM447.877 179.212V178.216H437.877V179.212H447.877ZM0.877441 178.216V179.212H10.8774V178.216H0.877441ZM447.877 185.183V184.188H437.877V185.183H447.877ZM0.877441 184.188V185.183H10.8774V184.188H0.877441ZM447.877 191.155V190.16H437.877V191.155H447.877ZM0.877441 190.16V191.155H10.8774V190.16H0.877441ZM447.877 197.127V196.132H437.877V197.127H447.877ZM0.877441 196.132V197.127H10.8774V196.132H0.877441ZM447.877 203.099V202.104H437.877V203.099H447.877ZM0.877441 202.104V203.099H10.8774V202.104H0.877441ZM447.877 209.071V208.075H437.877V209.071H447.877ZM0.877441 208.076V209.071H10.8774V208.076H0.877441ZM447.877 215.043V214.047H437.877V215.043H447.877ZM0.877441 214.047V215.043H10.8774V214.047H0.877441ZM447.877 221.014V220.019H437.877V221.014H447.877ZM0.877441 220.019V221.014H10.8774V220.019H0.877441ZM447.877 226.986V225.991H437.877V226.986H447.877ZM0.877441 225.991V226.986H10.8774V225.991H0.877441ZM447.877 232.958V231.963H437.877V232.958H447.877ZM0.877441 231.963V232.958H10.8774V231.963H0.877441ZM447.877 238.93V237.935H437.877V238.93H447.877ZM0.877441 237.935V238.93H10.8774V237.935H0.877441ZM447.877 244.902V243.906H437.877V244.902H447.877ZM0.877441 243.907V244.902H10.8774V243.907H0.877441ZM447.877 250.874V249.878H437.877V250.874H447.877ZM0.877441 249.878V250.874H10.8774V249.878H0.877441ZM447.877 256.845V255.85H437.877V256.845H447.877ZM0.877441 255.85V256.845H10.8774V255.85H0.877441ZM447.877 262.817V261.822H437.877V262.817H447.877ZM0.877441 261.822V262.817H10.8774V261.822H0.877441ZM447.877 268.789V267.794H437.877V268.789H447.877ZM0.877441 267.794V268.789H10.8774V267.794H0.877441ZM447.877 274.761V273.766H437.877V274.761H447.877ZM0.877441 273.766V274.761H10.8774V273.766H0.877441ZM447.877 280.733V279.737H437.877V280.733H447.877ZM0.877441 279.737V280.733H10.8774V279.737H0.877441ZM447.877 286.705V285.709H437.877V286.705H447.877ZM0.877441 285.709V286.705H10.8774V285.709H0.877441ZM447.877 292.676V291.681H437.877V292.676H447.877ZM0.877441 291.681V292.676H10.8774V291.681H0.877441ZM447.877 298.648V297.653H437.877V298.648H447.877ZM0.877441 297.653V298.648H10.8774V297.653H0.877441ZM447.877 304.62V303.625H437.877V304.62H447.877ZM0.877441 303.625V304.62H10.8774V303.625H0.877441ZM447.877 310.592V309.597H437.877V310.592H447.877ZM0.877441 309.597V310.592H10.8774V309.597H0.877441ZM447.877 316.564V315.568H437.877V316.564H447.877ZM0.877441 315.568V316.564H10.8774V315.568H0.877441ZM447.877 322.536V321.54H437.877V322.536H447.877ZM0.877441 321.54V322.536H10.8774V321.54H0.877441ZM447.877 328.507V327.512H437.877V328.507H447.877ZM0.877441 327.512V328.507H10.8774V327.512H0.877441ZM447.877 334.479V333.484H437.877V334.479H447.877ZM0.877441 333.484V334.479H10.8774V333.484H0.877441ZM447.877 340.451V339.456H437.877V340.451H447.877ZM0.877441 339.456V340.451H10.8774V339.456H0.877441ZM447.877 346.423V345.428H437.877V346.423H447.877ZM0.877441 345.428V346.423H10.8774V345.428H0.877441ZM447.877 352.395V351.399H437.877V352.395H447.877ZM0.877441 351.399V352.395H10.8774V351.399H0.877441ZM447.877 358.367V357.371H437.877V358.367H447.877ZM0.877441 357.371V358.367H10.8774V357.371H0.877441ZM447.877 364.338V363.343H437.877V364.338H447.877ZM0.877441 363.343V364.338H10.8774V363.343H0.877441ZM447.877 370.31V369.315H437.877V370.31H447.877ZM0.877441 369.315V370.31H10.8774V369.315H0.877441ZM447.877 376.282V375.287H437.877V376.282H447.877ZM0.877441 375.287V376.282H10.8774V375.287H0.877441ZM447.877 382.254V381.259H437.877V382.254H447.877ZM0.877441 381.259V382.254H10.8774V381.259H0.877441ZM447.877 388.226V387.23H437.877V388.226H447.877ZM0.877441 387.23V388.226H10.8774V387.23H0.877441ZM447.877 394.198V393.202H437.877V394.198H447.877ZM0.877441 393.202V394.198H10.8774V393.202H0.877441ZM447.877 400.169V399.174H437.877V400.169H447.877ZM0.877441 399.174V400.169H10.8774V399.174H0.877441ZM447.877 406.141V405.146H437.877V406.141H447.877ZM0.877441 405.146V406.141H10.8774V405.146H0.877441ZM447.877 412.113V411.118H437.877V412.113H447.877ZM0.877441 411.118V412.113H10.8774V411.118H0.877441ZM447.877 418.085V417.09H437.877V418.085H447.877ZM0.877441 417.09V418.085H10.8774V417.09H0.877441ZM17.3512 434.531H18.3489V424.531H17.3512V434.531ZM23.3375 434.531H24.3352V424.531H23.3375V434.531ZM29.3238 434.531H30.3215V424.531H29.3238V434.531ZM35.3101 434.531H36.3078V424.531H35.3101V434.531ZM41.2964 434.531H42.2941V424.531H41.2964V434.531ZM47.2827 434.531H48.2804V424.531H47.2827V434.531ZM53.269 434.531H54.2667V424.531H53.269V434.531ZM59.2553 434.531H60.253V424.531H59.2553V434.531ZM65.2416 434.531H66.2393V424.531H65.2416V434.531ZM71.2279 434.531H72.2256V424.531H71.2279V434.531ZM77.2142 434.531H78.2119V424.531H77.2142V434.531ZM83.2005 434.531H84.1982V424.531H83.2005V434.531ZM89.1868 434.531H90.1845V424.531H89.1868V434.531ZM95.1731 434.531H96.1709V424.531H95.1731V434.531ZM101.159 434.531H102.157V424.531H101.159V434.531ZM107.146 434.531H108.143V424.531H107.146V434.531ZM113.132 434.531H114.13V424.531H113.132V434.531ZM119.118 434.531H120.116V424.531H119.118V434.531ZM125.105 434.531H126.102V424.531H125.105V434.531ZM131.091 434.531H132.089V424.531H131.091V434.531ZM137.077 434.531H138.075V424.531H137.077V434.531ZM143.064 434.531H144.061V424.531H143.064V434.531ZM149.05 434.531H150.048V424.531H149.05V434.531ZM155.036 434.531H156.034V424.531H155.036V434.531ZM161.022 434.531H162.02V424.531H161.022V434.531ZM167.009 434.531H168.006V424.531H167.009V434.531ZM172.995 434.531H173.993V424.531H172.995V434.531ZM178.981 434.531H179.979V424.531H178.981V434.531ZM184.968 434.531H185.965V424.531H184.968V434.531ZM190.954 434.531H191.952V424.531H190.954V434.531ZM196.94 434.531H197.938V424.531H196.94V434.531ZM202.927 434.531H203.924V424.531H202.927V434.531ZM208.913 434.531H209.911V424.531H208.913V434.531ZM214.899 434.531H215.897V424.531H214.899V434.531ZM220.885 434.531H221.883V424.531H220.885V434.531ZM226.872 434.531H227.869V424.531H226.872V434.531ZM232.858 434.531H233.856V424.531H232.858V434.531ZM238.844 434.531H239.842V424.531H238.844V434.531ZM244.831 434.531H245.828V424.531H244.831V434.531ZM250.817 434.531H251.815V424.531H250.817V434.531ZM256.803 434.531H257.801V424.531H256.803V434.531ZM262.79 434.531H263.787V424.531H262.79V434.531ZM268.776 434.531H269.774V424.531H268.776V434.531ZM274.762 434.531H275.76V424.531H274.762V434.531ZM280.748 434.531H281.746V424.531H280.748V434.531ZM286.735 434.531H287.732V424.531H286.735V434.531ZM292.721 434.531H293.719V424.531H292.721V434.531ZM298.707 434.531H299.705V424.531H298.707V434.531ZM304.694 434.531H305.691V424.531H304.694V434.531ZM310.68 434.531H311.678V424.531H310.68V434.531ZM316.666 434.531H317.664V424.531H316.666V434.531ZM322.652 434.531H323.65V424.531H322.652V434.531ZM328.639 434.531H329.637V424.531H328.639V434.531ZM334.625 434.531H335.623V424.531H334.625V434.531ZM340.611 434.531H341.609V424.531H340.611V434.531ZM346.598 434.531H347.595V424.531H346.598V434.531ZM352.584 434.531H353.582V424.531H352.584V434.531ZM358.57 434.531H359.568V424.531H358.57V434.531ZM364.557 434.531H365.554V424.531H364.557V434.531ZM370.543 434.531H371.541V424.531H370.543V434.531ZM376.529 434.531H377.527V424.531H376.529V434.531ZM382.515 434.531H383.513V424.531H382.515V434.531ZM388.502 434.531H389.499V424.531H388.502V434.531ZM394.488 434.531H395.486V424.531H394.488V434.531ZM400.474 434.531H401.472V424.531H400.474V434.531ZM406.461 434.531H407.458V424.531H406.461V434.531ZM412.447 434.531H413.445V424.531H412.447V434.531ZM418.433 434.531H419.431V424.531H418.433V434.531ZM424.42 434.531H425.417V424.531H424.42V434.531ZM430.406 434.531H431.404V424.531H430.406V434.531Z" fill="#F3ECE7"/>
<path d="M3.08975 2.76328L3.08984 2.76318L10.1609 9.83425L10.1608 9.83435L3.08975 2.76328Z" stroke="#F3ECE7"/>
</svg>
