<svg width="179" height="145" viewBox="0 0 179 145" fill="none" xmlns="http://www.w3.org/2000/svg">
<path fill-rule="evenodd" clip-rule="evenodd" d="M109.354 114.935C102.021 121.74 93.6346 123.984 84.4737 121.892C78.5566 120.541 73.0137 118.171 68.2053 113.691C63.9399 109.718 59.9332 105.415 56.7488 100.111C56.537 99.7587 56.3374 99.3951 56.1449 99.0276C56.112 98.9654 56.14 98.8567 56.14 98.572C57.0648 99.2177 57.9086 99.8222 58.7642 100.4C62.5206 102.938 66.3676 105.306 70.6526 106.142C74.205 106.836 77.8104 107.313 81.4049 107.475C87.1381 107.735 92.8849 107.652 98.5609 106.386C106.891 104.529 114.295 100.443 120.325 93.1001C120.524 92.8596 120.723 92.6208 120.93 92.393C120.983 92.3361 121.072 92.3282 121.445 92.1692C121.159 94.1479 121.246 96.1692 120.577 97.7134C117.731 104.271 114.238 110.403 109.354 114.935Z" fill="#E8D0CD"/>
<mask id="mask0_8_258" style="mask-type:luminance" maskUnits="userSpaceOnUse" x="0" y="2" width="179" height="143">
<path d="M0 2.38916H178.887V144.863H0V2.38916Z" fill="white"/>
</mask>
<g mask="url(#mask0_8_258)">
<path fill-rule="evenodd" clip-rule="evenodd" d="M161.906 49.3876C160.144 47.05 158.383 44.7121 156.567 42.3014C159.919 43.5319 160.957 46.4245 161.906 49.3876ZM149.388 39.9275C153.335 39.8535 155.671 42.2738 157.621 45.4888C154.805 43.5862 152.083 41.7486 149.388 39.9275ZM147.06 43.7159C142.839 42.5647 138.637 41.4187 134.419 40.2683C134.989 40.2263 135.587 40.0769 136.151 40.1579C139.987 40.7081 143.598 41.9645 147.06 43.7159ZM120.607 43.8057C120.469 41.0906 120.599 38.5095 123.045 36.5908C125.749 34.4714 128.69 32.7918 131.789 31.3191C127.867 35.2906 123.357 38.7268 120.607 43.8057ZM119.304 45.2233C118.771 45.1716 118.237 45.0695 117.705 45.0765C115.769 45.1024 113.835 45.1646 111.9 45.2132C111.471 45.2233 110.963 45.388 110.625 45.2172C108.471 44.1299 106.178 43.8456 103.549 43.9678C105.5 42.2287 107.203 40.6946 108.927 39.1859C109.413 38.7605 110.02 38.9668 111.292 39.9358C110.051 40.7905 108.839 41.6263 107.626 42.4617C107.737 42.6256 107.848 42.7898 107.959 42.9541C109.134 42.2168 110.324 41.5006 111.478 40.7314C111.977 40.3984 112.401 40.0782 112.889 40.8015C112.04 41.5374 111.191 42.2729 110.343 43.008C110.443 43.1372 110.544 43.2665 110.644 43.3961C111.042 43.1486 111.459 42.927 111.834 42.6483C113.969 41.0621 113.966 41.0573 116.254 42.7193C115.897 43.1666 115.543 43.6103 115.188 44.0545C115.256 44.1242 115.324 44.1943 115.392 44.2635C115.84 43.8662 116.289 43.4684 116.922 42.9064C117.724 43.5556 118.579 44.2477 119.434 44.9403C119.391 45.0341 119.347 45.1287 119.304 45.2233ZM118.285 47.6191C118.309 48.0593 118.354 48.4992 118.354 48.939C118.348 59.6449 118.365 70.3508 118.307 81.0567C118.295 83.3184 118.025 85.5802 117.827 87.8375C117.795 88.1981 117.588 88.6081 117.335 88.8744C111.633 94.865 104.858 99.0507 96.772 100.979C92.7776 101.931 88.7118 102.316 84.6097 102.43C78.6825 102.595 72.7322 102.744 66.9289 101.408C63.7065 100.666 60.6145 99.3245 57.5041 98.1457C56.0244 97.5849 54.6585 96.7312 53.2046 96.0938C52.5297 95.7972 52.2396 95.3894 52.1818 94.6749C51.8977 91.1476 51.3734 87.6259 51.3209 84.0964C51.1883 75.184 51.261 66.2671 51.2557 57.3525C51.2553 56.9714 51.296 56.5911 51.317 56.2104C53.5468 60.6603 55.5058 65.1212 57.9991 69.306C58.1334 69.2416 58.2665 69.1776 58.4004 69.1133C56.1552 64.3594 53.9101 59.605 51.5813 54.6737H54.0055C54.0274 58.1068 58.8096 65.7826 61.5799 66.6872C58.7492 63.1078 56.0279 59.4653 54.3792 54.76C55.5136 55.0005 56.3425 55.1521 57.1535 55.3694C57.322 55.4145 57.5155 55.6909 57.5443 55.8836C58.0284 59.0706 59.8074 61.7196 61.144 64.5468C61.9082 66.1629 62.8036 67.718 63.6794 69.278C63.8991 69.67 64.2689 69.9771 64.6991 70.4717C64.7779 70.042 64.8159 69.8339 64.8566 69.6148C65.0483 69.6674 65.2304 69.7169 65.5306 69.7993C65.4221 69.4777 65.3573 69.228 65.2553 68.9945C63.8921 65.861 62.4959 62.7416 61.1738 59.5914C60.8307 58.774 60.7125 57.862 60.4762 56.9346C62.2706 57.0638 63.2229 58.0626 63.6198 59.4771C64.4133 62.3053 65.3709 65.0887 66.2882 67.881C66.5736 68.7483 66.8668 69.6315 67.3009 70.4283C68.399 72.4434 69.5789 74.4134 70.8472 76.3768C70.1466 72.0295 69.2336 67.7149 69.2389 63.2909C70.7024 63.262 71.4048 64.0172 71.2118 65.3253C70.733 68.5709 71.1899 71.7487 71.8862 74.9071C71.972 75.2974 72.2263 75.651 72.5725 75.9817C72.1366 72.3931 71.5554 68.8421 71.6832 65.1431C73.2399 66.0963 73.4438 66.6325 73.1699 68.2056C72.5725 71.6352 72.9869 75.0355 73.5778 78.4213C73.6255 78.6977 73.8281 78.947 73.9594 79.2089C74.0561 79.187 74.1528 79.1656 74.25 79.1437C74.0999 77.6358 73.9988 76.1214 73.7843 74.6233C73.6145 73.4322 73.8657 72.5157 75.1358 71.9011C75.1822 75.5248 75.0614 79.1152 76.142 82.6193C75.966 80.9419 76.8356 79.7105 77.7464 78.2745C78.0926 80.4859 78.4129 82.5321 78.7333 84.5783H79.2195C79.1355 83.0985 78.553 81.4466 80.2196 80.7444C81.2857 81.9928 81.4468 83.8621 82.9085 84.8512C83.0276 84.7864 83.1453 84.7211 83.2643 84.6563C82.7711 83.495 82.2779 82.3341 81.7851 81.1732C82.7803 82.2907 83.0578 83.8568 84.4079 84.6887C83.828 82.6039 81.4437 80.9354 83.2468 78.1374C84.3711 79.9589 85.4215 81.6612 86.4728 83.3636L86.703 83.3438C86.703 83.0407 86.8203 82.6635 86.6841 82.4462C85.6382 80.7759 86.3257 79.0578 86.4653 77.3507C86.675 74.7779 86.8583 72.2029 87.0417 69.628C87.0592 69.3778 86.9984 69.1216 86.7292 68.8552C86.4124 71.3759 86.0955 73.8965 85.7668 76.5109C84.1278 75.2869 84.1278 75.2869 84.5961 73.8168C84.8005 73.8698 85.0062 73.9232 85.3651 74.0165C84.3628 72.9433 84.4762 71.9331 85.1103 70.8909C86.338 68.8736 87.5542 66.8502 88.9122 64.8736C89.3512 69.6591 88.7503 74.3819 88.528 79.1112C88.6405 79.1594 88.7529 79.2076 88.8654 79.2562C89.0588 78.908 89.3845 78.5746 89.4247 78.2097C89.904 73.8216 90.3862 69.43 89.7066 65.0173C89.4974 63.6576 90.2891 62.1419 91.9045 61.1856C91.9942 65.9425 91.5171 70.5269 91.0668 75.1126C91.1836 75.1546 91.3005 75.1971 91.4169 75.2396C91.6318 74.6846 91.9408 74.1462 92.0401 73.571C92.2498 72.3589 92.4708 71.1288 92.4708 69.9057C92.4703 67.0526 92.4673 64.1885 92.2174 61.3507C92.0782 59.7732 93.2354 59.2844 93.9746 58.3684C94.3225 62.7718 93.6152 67.0583 92.8025 71.3364C92.936 71.3859 93.0695 71.4346 93.203 71.4836C93.4489 71.0013 93.8227 70.544 93.9216 70.0328C94.6507 66.2842 95.326 62.5291 94.6993 58.6807C94.4582 57.1965 95.0525 56.5061 96.9996 56.051C97.0513 61.4291 95.9768 66.6058 94.8814 72.0807C95.2932 71.7294 95.5142 71.6216 95.6123 71.4451C98.1419 66.922 100.735 62.4262 102.095 57.3661C102.68 55.1884 103.2 52.9937 103.782 50.8157C103.866 50.5042 104.072 50.1406 104.331 49.9768C105.196 49.4309 106.112 48.9648 107.319 48.2955C107.187 49.2228 107.221 49.9071 106.988 50.4814C105.31 54.5984 103.579 58.6934 101.858 62.7924C101.694 63.1831 101.476 63.5511 101.142 64.2078C101.701 63.9397 101.98 63.8052 102.305 63.6493V64.5276C102.382 64.5727 102.458 64.6174 102.535 64.6621C102.9 64.2297 103.363 63.8477 103.613 63.3562C105.841 58.9624 108.044 54.5554 110.22 50.1353C110.514 49.5391 110.788 48.847 110.777 48.2039C110.756 46.9615 111.499 46.6917 112.458 46.5379C113.035 46.4451 113.61 46.3373 114.52 46.1783C114.219 47.1284 114.081 47.8951 113.748 48.5649C111.865 52.352 109.673 55.9428 106.849 59.1166C106.526 59.4793 106.228 59.8635 105.918 60.2385L106.182 60.5372C106.71 60.1824 107.319 59.9055 107.754 59.4591C110.615 56.528 112.845 53.1479 114.513 49.42C114.947 48.4488 114.988 47.3015 115.243 46.0731C115.869 46.0337 116.719 45.9798 117.928 45.9027C115.262 51.9209 112.458 57.5807 109.76 63.2883C109.864 63.3619 109.968 63.4359 110.072 63.5095C110.444 63.0097 110.904 62.5528 111.172 62.0017C113.399 57.4287 115.592 52.8391 117.791 48.253C117.891 48.0458 117.968 47.828 118.285 47.6191ZM119.697 93.4833C121.533 94.7734 123.48 95.1029 125.677 94.7765C126.173 107.95 124.534 120.906 123.446 133.998C119.525 132.594 115.85 131.01 111.54 131.624C115.859 119.136 117.45 106.341 119.697 93.4833ZM105.536 110.446C98.2732 116.044 89.9657 117.889 80.8927 116.169C75.0316 115.057 69.5413 113.107 64.7783 109.422C60.5541 106.154 56.5854 102.614 53.4313 98.2508C53.2212 97.9608 53.0238 97.662 52.8326 97.3598C52.8002 97.3085 52.8282 97.2192 52.8282 96.9848C53.7442 97.5157 54.5801 98.0134 55.4274 98.4891C59.1479 100.576 62.9585 102.525 67.2025 103.212C70.7208 103.783 74.2924 104.175 77.8523 104.309C83.5317 104.523 89.2238 104.454 94.8451 103.413C103.096 101.885 110.43 98.5242 116.403 92.4837C116.599 92.2857 116.796 92.089 117.002 91.9019C117.054 91.8546 117.142 91.848 117.512 91.7175C117.228 93.3453 117.315 95.0082 116.652 96.2782C113.833 101.673 110.373 106.717 105.536 110.446ZM56.9623 126.831C53.3521 126.481 50.2557 127.71 46.9151 128.954C46.1413 118.825 44.8126 108.834 45.01 98.748C47.9125 98.4418 47.9125 98.4418 50.4771 96.9607C52.2155 107.014 53.567 117.019 56.9623 126.831ZM50.2307 53.8659C51.0732 53.1462 51.7319 52.5841 52.4299 51.9879C52.9065 52.419 53.2685 52.7475 53.6308 53.0756C53.6772 53.0371 53.7236 52.999 53.77 52.9604C53.5429 52.6253 53.3166 52.2902 53.0934 51.9603C54.8611 49.5107 56.2353 51.6375 57.7185 52.4571C57.7942 52.3445 57.87 52.2319 57.9461 52.1193C57.2739 51.506 56.6016 50.8928 55.9298 50.2795C56.5246 49.8265 56.515 49.8401 57.9422 50.7885C58.5829 51.2147 59.2683 51.5735 59.9339 51.963C60.0162 51.8315 60.0985 51.7005 60.1803 51.5691C59.1982 50.8954 58.217 50.2212 57.2052 49.5269C58.6463 48.4431 58.7313 48.4667 59.8744 49.5032C61.0696 50.5861 62.3073 51.6221 63.4732 52.9416C63.0627 52.9416 62.6465 52.8973 62.243 52.9504C61.1847 53.0897 60.0482 53.0761 59.0993 53.4861C57.936 53.989 56.8458 53.9772 55.6449 53.8948C53.9582 53.7792 52.2575 53.8659 50.2307 53.8659ZM53.0676 49.9531C52.156 50.6181 51.4378 51.1416 50.6854 51.6905C50.7187 50.1472 50.7695 50.1091 53.0676 49.9531ZM52.7717 45.6193C53.756 43.7163 54.876 41.8839 55.9141 40.0086C56.2064 39.4798 56.5229 39.3694 57.1513 39.4505C58.5229 39.6274 59.9177 39.6283 61.3038 39.6875C61.8045 39.7089 62.3073 39.691 62.8588 39.691C62.4789 40.642 62.4784 40.6398 59.8985 41.332C58.789 41.6294 57.6826 41.9395 56.6073 42.428C57.5347 42.2703 58.4625 42.1126 59.5094 41.9343C59.4661 42.2598 59.4319 42.5068 59.3987 42.7526C58.9212 43.3195 58.287 43.7286 58.1365 44.5991C58.0722 44.9705 57.3754 45.3481 56.8953 45.508C55.7443 45.8913 54.5508 46.1472 53.4256 46.6882C54.672 46.4359 55.9185 46.1835 57.1649 45.9303L57.413 46.2383C57.0533 46.7469 56.8043 47.4807 56.3132 47.7225C54.7687 48.4821 53.1332 49.0564 51.5332 49.703C51.4233 49.5899 51.313 49.4774 51.2028 49.3643C51.7192 48.1132 52.152 46.8179 52.7717 45.6193ZM57.3636 47.2756C57.3229 46.0193 58.1382 45.6119 59.0814 45.296C58.1592 44.7221 58.4201 44.1461 59.7978 43.3909C59.6718 43.1675 59.5475 42.9467 59.4232 42.7254C59.4197 42.7294 59.4166 42.7325 59.4136 42.736C59.9829 41.8191 60.7283 41.2163 62.2364 41.3793C60.3046 43.2397 60.3764 46.3649 57.3636 47.2756ZM62.3765 48.6253C63.4829 49.7043 64.6641 50.7096 65.8392 51.7146C66.1468 51.9778 66.5556 52.1228 66.9171 52.3217L67.1044 52.0703C65.4825 50.633 63.8605 49.1961 62.2071 47.7308C63.6715 46.7679 63.7988 46.8297 64.9262 47.8364C66.6138 49.342 68.3636 50.7797 70.101 52.228C70.3908 52.4689 70.7558 52.6179 71.0866 52.8097C71.1523 52.7256 71.2175 52.642 71.2836 52.5583C69.1294 50.7166 66.9753 48.8755 64.7547 46.9769C66.507 46.1507 66.6926 46.2598 67.7977 47.4811C69.4222 49.2763 71.1453 50.9826 72.8232 52.7291C73.0898 53.0069 73.341 53.2999 73.7152 53.7139C70.607 53.4515 67.7277 53.2128 64.8488 52.9591C64.6238 52.939 64.356 52.8733 64.1958 52.7304C62.6596 51.3619 61.1432 49.9719 59.6114 48.5798C60.9449 47.5306 61.3117 47.5867 62.3765 48.6253ZM64.535 42.5143C64.5888 42.5669 64.6426 42.619 64.6965 42.6716C64.1932 43.3768 63.6903 44.0821 63.187 44.787L61.4968 45.7573L61.2661 45.462C62.3555 44.4795 63.4448 43.4969 64.535 42.5143ZM78.132 37.8138C76.8054 38.9248 75.6794 40.2416 74.2548 40.9797C71.5702 42.3702 68.7132 43.4277 65.8934 44.5373C67.1981 42.8472 75.1669 38.5283 78.132 37.8138ZM75.7476 41.9347C76.8422 41.1318 77.9372 40.3288 79.0313 39.5258C78.3005 41.837 78.0755 42.0044 75.7476 41.9347ZM83.4324 37.2925C82.2056 39.4951 79.764 42.1297 78.795 42.1305C80.0555 40.196 80.5557 37.7481 83.4324 37.2925ZM84.5191 37.1637C84.9532 36.6271 85.7738 36.4046 86.4185 36.0384L86.7979 36.4313C86.527 37.0678 86.3091 37.7337 85.9747 38.3351C85.1861 39.7514 84.3208 41.1243 83.5309 42.5397C83.1571 43.2086 82.751 43.5372 81.9343 43.273C81.4629 43.1201 80.9198 43.1915 80.1469 43.1473C80.5715 42.6019 80.9084 42.1998 81.2113 41.774C82.3085 40.2324 83.3304 38.6304 84.5191 37.1637ZM88.2124 35.8574C88.8654 35.7313 89.5477 35.7597 90.3425 35.7177C89.7748 37.3845 85.2753 43.2213 83.8127 44.0414C84.1357 43.4281 84.3068 43.072 84.5051 42.7311C85.6596 40.7449 87.0242 38.8635 87.373 36.4931C87.4106 36.2368 87.8929 35.9196 88.2124 35.8574ZM108.294 47.9503C108.86 47.6379 109.497 47.4557 110.106 47.2213C110.215 47.3102 110.324 47.3992 110.433 47.4881C109.183 50.1813 107.933 52.8741 106.683 55.5674C106.579 55.503 106.477 55.4386 106.373 55.3742C106.659 54.6045 107.048 53.8554 107.208 53.0603C107.494 51.644 107.624 50.1975 107.86 48.7699C107.909 48.4733 108.065 48.0773 108.294 47.9503ZM100.489 50.0512C99.9433 50.3618 99.3669 50.6934 98.7638 50.8161C94.7208 51.6362 90.9543 53.2005 87.2767 55.0053C85.4596 55.8968 83.6394 56.7931 81.8923 57.8111C80.8752 58.4038 80.0423 58.2934 78.9723 57.5728C86.3542 53.3078 93.5676 49.0073 102.284 48.1014C100.174 47.2862 97.4084 47.8929 88.7595 51.0154C88.524 50.711 88.2698 50.3824 87.8356 49.8204C88.7022 49.7262 89.3254 49.6587 90.069 49.5781C90.1604 49.4857 90.3526 49.13 90.6331 49.0336C96.144 47.1425 101.794 45.9636 107.636 45.8107C107.817 45.8059 108 45.8475 108.496 45.9027C106.93 46.6041 105.616 47.1192 104.372 47.7711C103.045 48.4667 101.794 49.3096 100.489 50.0512ZM99.3411 60.2989C99.8037 58.056 100.49 55.8298 99.9879 53.4844C99.9376 53.2482 100.118 52.8487 100.321 52.691C101.158 52.0392 102.046 51.4504 103.064 50.93C101.988 55.694 100.181 60.1745 98.2946 64.6402C98.6465 63.1941 99.04 61.7559 99.3411 60.2989ZM97.4342 55.2423C97.4202 55.0439 97.4929 54.7587 97.6325 54.6439C98.1699 54.201 98.7502 53.8116 99.5862 53.2057C99.552 57.1238 98.4465 60.4908 97.3611 63.814C97.5069 62.4362 97.762 61.0598 97.7681 59.6821C97.7751 58.2028 97.5388 56.7234 97.4342 55.2423ZM81.5417 61.982C80.8568 61.4545 80.1587 60.917 79.469 60.3861C81.4581 58.739 95.3807 51.7019 97.7301 51.6383C96.0241 53.2294 94.2332 54.9037 92.4345 56.5697C92.2927 56.7011 92.1045 56.7878 91.9272 56.8745C88.4413 58.5913 84.9532 60.305 81.5417 61.982ZM87.5551 61.4401C85.8347 62.1204 84.2368 63.138 82.6459 64.1092C81.9641 64.5258 81.5067 64.496 80.8384 63.7391C84.0854 61.9198 87.268 60.1373 90.451 58.3543L90.6313 58.6645C89.9171 59.9327 89.005 60.8666 87.5551 61.4401ZM81.8288 68.0312C81.3776 67.7522 80.9977 67.5169 80.3605 67.1222C82.8945 65.437 85.2338 63.8805 87.573 62.3241C87.6851 62.4708 87.7971 62.6172 87.9096 62.7639C86.2574 64.8955 83.6604 65.9741 81.8288 68.0312ZM83.449 68.9902C83.3694 69.0432 83.0512 68.7391 82.7317 68.5258C83.7751 67.6085 84.7239 66.7735 85.6736 65.9377C85.362 67.3132 84.5353 68.2638 83.449 68.9902ZM83.8937 76.2467C85.6548 77.5526 85.7331 77.7344 85.2806 79.3531C83.8311 78.1725 83.4473 77.3493 83.8937 76.2467ZM81.4376 70.5335C81.1487 70.5335 80.9347 70.2973 80.922 70.0179C80.9098 69.7388 81.168 69.5018 81.4376 69.5018H83.3453C83.6341 69.5018 83.8486 69.7379 83.8608 70.0179C83.8735 70.2965 83.6149 70.5335 83.3453 70.5335H81.4376ZM79.2887 75.7797C80.2935 77.5184 80.1316 79.7845 78.9723 80.9406C78.1407 78.7691 78.2243 77.0392 79.2887 75.7797ZM77.6208 69.6293C78.5044 68.7694 78.9075 69.6516 79.6454 69.9224C78.5753 70.9834 78.2633 69.9092 77.6208 69.6293ZM77.584 73.9101C78.0388 75.7162 77.2532 77.1851 76.2969 78.6535C75.7809 76.1832 75.7174 74.9763 77.584 73.9101ZM64.3183 58.7893C65.0908 59.3339 65.8694 59.8705 66.6296 60.4321C66.7324 60.5083 66.8033 60.7221 66.7836 60.8561C66.3053 64.0724 67.4314 67.0491 68.1412 70.088C68.1544 70.1445 68.101 70.2167 67.9679 70.604C66.5652 66.5909 65.251 62.8323 63.9371 59.0732C64.0636 58.979 64.191 58.884 64.3183 58.7893ZM59.9282 54.7088C65.7004 54.5567 71.1457 55.8587 76.5026 57.823C76.2107 58.6316 75.7656 58.6509 75.0281 58.4196C72.5357 57.6372 70.024 56.9065 67.4922 56.2626C66.7429 56.072 65.9039 56.2332 65.1017 56.33C68.3272 56.7344 71.3663 57.72 74.3078 59.022C74.7384 59.2125 75.0614 59.6475 75.2833 60.1495H77.1564C75.9599 61.4598 75.9796 61.4028 74.7025 60.9613C72.4543 60.1841 70.1763 59.4968 67.9202 58.7429C67.3241 58.5436 66.7495 58.2654 66.1889 57.9763C64.2571 56.9819 62.3353 55.9673 60.4097 54.9598C60.2495 54.8757 60.0884 54.7924 59.9282 54.7088ZM60.0573 57.7257C60.197 59.0114 60.6412 60.2647 60.9698 61.5277C61.0644 61.8904 61.2241 62.2365 61.3537 62.59C61.2666 62.6264 61.1795 62.6623 61.092 62.6986C60.0429 60.4588 58.9938 58.2199 57.8402 55.7566C59.8705 56.0414 59.8919 56.2004 60.0573 57.7257ZM77.044 59.1617C77.9521 58.1813 78.1245 58.1686 79.3815 58.9852C78.2379 59.9765 78.1241 59.9848 77.044 59.1617ZM76.9626 62.0402C77.9875 60.5911 78.3876 60.7571 80.9561 62.4941C79.3613 64.2257 78.3145 62.24 76.9626 62.0402ZM76.0207 73.6223V70.8248C77.5451 71.9068 77.5394 72.2647 76.0207 73.6223ZM76.6173 67.2458C77.2155 66.1283 77.7959 66.6951 78.4274 67.0942C77.8891 68.0759 77.2965 67.7154 76.6173 67.2458ZM80.9982 68.5709C80.2747 69.78 79.7784 68.6244 78.9499 68.613C79.8918 67.4131 80.385 68.234 80.9982 68.5709ZM78.2409 65.9097C79.2882 64.4908 79.9285 64.2901 81.08 65.0664C79.3929 66.7039 79.3928 66.7039 78.2409 65.9097ZM79.6734 51.878C79.5937 51.9555 79.5132 52.0335 79.4331 52.1115C79.1762 51.8688 78.8913 51.6493 78.6681 51.379C78.086 50.6768 77.5302 49.9531 76.9661 49.2364C76.0164 48.0296 76.0172 48.0287 77.2536 46.944C78.0576 48.5833 78.8655 50.2304 79.6734 51.878ZM79.8082 47.2879C79.9644 47.5175 79.427 48.221 79.2038 48.7094L78.7626 48.6428L77.8974 46.5734L78.2418 46.23C78.7858 46.5677 79.4791 46.8038 79.8082 47.2879ZM80.4231 45.0411C79.9986 44.8746 79.5767 44.7002 79.1075 44.5106C79.8336 43.8062 80.6638 43.7225 82.3168 44.136C81.68 45.533 81.6796 45.5343 80.4231 45.0411ZM82.3549 50.8143C81.7374 51.0798 81.2135 51.3054 80.5806 51.577C80.15 50.8871 79.7425 50.233 79.2721 49.4787C79.6839 49.1466 80.0638 48.8408 80.5272 48.4672C81.1255 49.2351 81.6914 49.9623 82.3549 50.8143ZM81.1588 47.5626C82.8731 47.7063 83.2788 48.9718 83.8753 50.1183C82.9676 50.3916 81.6279 49.1111 81.1588 47.5626ZM74.0994 53.0581C72.3655 51.2507 70.5833 49.4892 68.8266 47.7032C68.4485 47.3186 68.1058 46.8989 67.5395 46.2624C68.9128 46.1555 69.9886 46.0714 71.056 45.9877C71.4621 48.8816 73.3314 50.7276 75.0111 52.6757C75.1717 52.8623 75.5997 52.8172 75.9525 52.7537C74.4841 50.5664 72.4946 48.8216 71.7711 46.2584C73.1856 45.5567 74.134 45.6802 74.3699 46.6755C74.5879 47.595 74.524 48.582 74.5931 49.6881C74.9122 49.498 75.2684 49.2855 75.6549 49.0546C76.6063 50.1954 77.5617 51.3409 78.5158 52.4838C77.6015 53.2184 76.001 53.4541 75.5608 55.057C78.532 53.7376 81.4152 52.4571 84.2762 51.1858C84.7414 51.4912 85.1165 51.7369 85.7419 52.1469C85.5594 51.5503 85.4644 51.2384 85.3708 50.9322C86.3874 50.1147 86.8434 50.9847 87.6006 51.6103C86.8067 52.0252 86.1458 52.3484 85.5047 52.7085C83.1505 54.0315 80.7863 55.3391 78.4637 56.716C77.8576 57.0752 77.3613 57.161 76.6934 56.9346C73.1178 55.7202 69.5268 54.5037 65.732 54.2339C63.6098 54.0836 61.4692 54.2072 59.1768 54.2072C60.8884 53.0607 68.943 53.2925 75.0189 54.6238C74.6334 53.9522 74.4504 53.4243 74.0994 53.0581ZM68.743 69.3813C68.0139 67.9217 66.9197 62.3789 67.1718 61.0209C68.5601 61.4436 68.7894 61.84 68.7574 63.1463C68.7045 65.3117 68.743 67.4793 68.743 69.3813ZM73.6487 71.35V67.5511C75.8137 68.8106 75.8216 69.8326 73.6487 71.35ZM71.5908 62.0424C70.7278 61.0905 69.6433 60.3397 68.6577 59.4994C68.6953 59.4193 68.7338 59.3391 68.7719 59.2585C70.8293 60.0978 72.8871 60.9372 74.9629 61.7844C74.7266 62.3311 74.548 62.7433 74.3296 63.2489C75.2829 63.3592 75.6899 61.9951 76.6755 62.6671C77.3214 63.1078 78.0738 63.3934 78.7885 63.7531C77.6326 65.2933 77.2418 65.3529 75.5857 64.7159C74.0377 64.1206 72.7191 63.287 71.5908 62.0424ZM82.0735 72.2813C82.0459 72.3462 82.0069 72.4062 81.9614 72.4513C81.8678 72.5446 81.729 72.6025 81.5964 72.6025H80.4835C80.3443 72.6025 80.22 72.5437 80.1194 72.4513C80.0178 72.3584 79.9741 72.22 79.9679 72.0864C79.9627 71.9576 80.0296 71.8113 80.1194 71.7211C80.2126 71.6282 80.3517 71.5704 80.4835 71.5704H80.7806C80.7583 71.5616 80.7364 71.5533 80.7141 71.545C80.6244 71.5125 80.5347 71.4828 80.4436 71.4552C80.255 71.3973 80.0629 71.3505 79.8699 71.311C79.5867 71.2536 79.4511 70.9334 79.5097 70.6763C79.5745 70.3915 79.8804 70.2619 80.1443 70.3153C80.968 70.4831 81.8288 70.8024 82.4385 71.403C82.6437 71.6058 82.6262 71.9283 82.4385 72.1333C82.3431 72.2367 82.2083 72.284 82.0735 72.2813ZM80.8581 75.152C80.8397 75.1516 80.8209 75.1489 80.8017 75.1489C80.6616 75.1472 80.5386 75.0907 80.4375 74.9974C80.3355 74.9045 80.2922 74.7661 80.2861 74.6325C80.28 74.5037 80.3474 74.3569 80.4375 74.2675C80.5299 74.1747 80.6704 74.1151 80.8017 74.116C81.2393 74.1203 81.6332 74.3135 82.0161 74.505C82.1352 74.565 82.2126 74.6903 82.2529 74.8134C82.2958 74.9465 82.2639 75.0915 82.2008 75.2111C82.1417 75.3228 82.0122 75.4153 81.8927 75.4481C81.7549 75.4862 81.6201 75.4586 81.4958 75.3964C81.3925 75.3447 81.2888 75.2957 81.1837 75.2484C81.0778 75.2068 80.9697 75.173 80.8581 75.152ZM81.2861 76.8386C81.2708 76.8092 81.2546 76.7794 81.2358 76.7518C81.2341 76.7505 81.2323 76.7479 81.2323 76.7479C81.1338 76.648 81.087 76.5205 81.0809 76.383C81.0752 76.2454 81.1417 76.1166 81.2323 76.0181C81.319 75.923 81.4699 75.8665 81.5964 75.8665C81.7282 75.8665 81.8691 75.9239 81.9614 76.0181C82.1164 76.1753 82.2354 76.3764 82.2945 76.5902C82.3164 76.669 82.3256 76.7544 82.3334 76.8351C82.3374 76.8754 82.3383 76.9157 82.3352 76.956C82.3277 77.0379 82.3186 77.1233 82.2967 77.2035C82.2735 77.2849 82.2376 77.3634 82.2008 77.4391C82.1426 77.5592 82.0148 77.6363 81.8927 77.6761C81.7597 77.7191 81.6153 77.6875 81.4958 77.624C81.3837 77.5649 81.2914 77.4352 81.2586 77.3156C81.2371 77.2473 81.2341 77.1781 81.2494 77.1097C81.2511 77.0611 81.2656 77.0155 81.2848 76.9722C81.2918 76.9529 81.2958 76.9336 81.3006 76.9139V76.8916C81.2962 76.8736 81.2918 76.8561 81.2861 76.8386ZM94.133 35.9744C93.7304 36.8343 93.4783 37.788 92.9163 38.4937C91.1635 40.6941 89.2961 42.803 87.4667 44.9425C87.05 45.4301 86.6084 45.897 86.0491 46.5165C88.6868 46.5003 94.3558 39.404 94.8083 35.7545C96.1178 35.843 97.4395 35.9323 98.7616 36.0221C98.8264 36.1128 98.8907 36.2039 98.9555 36.2951C97.4128 37.8489 95.8569 39.39 94.3317 40.9605C92.8148 42.5209 91.3285 44.111 89.8983 45.8313C96.2193 45.1444 102.465 44.0988 108.774 44.9692C108.785 45.0717 108.796 45.1747 108.807 45.2772C108.685 45.3135 108.559 45.392 108.443 45.3801C102.101 44.7305 96.0556 46.1139 90.1079 48.097C89.1394 48.4199 88.3201 48.4571 87.3914 47.9748C86.2701 47.3917 85.067 46.9668 83.7479 46.4091C84.5576 45.4191 85.3292 44.4996 86.0732 43.5582C87.257 42.0622 88.4409 40.5662 89.584 39.0396C90.0099 38.4714 90.3674 37.8397 90.6742 37.1975C91.501 35.468 92.0183 35.2437 94.133 35.9744ZM100.209 36.2894C100.866 36.3507 101.513 36.5307 102.163 36.6639L102.305 36.9583C99.7113 39.1666 97.1169 41.3749 94.5229 43.5832C94.5873 43.6809 94.6516 43.7781 94.716 43.8754C95.133 43.652 95.6004 43.4899 95.9584 43.195C97.983 41.53 100.103 39.9538 101.943 38.1008C103.055 36.9811 103.981 36.8058 105.485 37.6999C103.455 39.4925 101.474 41.243 99.4925 42.9935C99.5472 43.0912 99.6028 43.1894 99.6579 43.287C100.107 43.0684 100.625 42.9305 100.993 42.6164C102.443 41.3801 103.953 40.1855 105.225 38.7807C105.98 37.9475 106.585 37.7135 107.534 38.2099C107.808 38.3535 108.108 38.4477 108.657 38.6711C107.006 40.1189 105.438 41.3468 104.055 42.7565C103.119 43.7124 102.102 44.041 100.83 44.1281C97.829 44.3345 94.8359 44.6512 91.6856 44.9372C92.0795 44.5163 92.4213 44.1518 92.7618 43.786C94.9799 41.4034 97.1913 39.0159 99.4247 36.6486C99.612 36.4501 99.9573 36.2662 100.209 36.2894ZM102.826 31.8785C104.055 32.9741 105.284 34.0697 106.682 35.3155C105.161 35.2214 103.868 34.0903 102.826 31.8785ZM107.219 33.2093C107.01 32.8597 106.863 32.5465 107.453 32.4532C106.466 32.0594 105.926 31.288 105.604 30.3023C107.471 30.2502 108.12 30.7185 108.587 32.5159C108.173 32.4856 107.795 32.458 107.418 32.43C109.397 33.4047 109.397 33.4047 109.803 34.5419C109.495 34.5954 109.201 34.6466 108.906 34.6979C109.998 35.2122 111.038 35.7751 111.247 37.2667C110.14 36.978 109.145 36.6902 108.593 35.574C108.188 34.7588 107.685 33.9926 107.219 33.2093ZM104.435 28.7297C104.487 28.5969 104.539 28.4642 104.592 28.3323C105.567 28.3323 106.543 28.3731 107.515 28.3218C108.898 28.2495 110.277 28.0901 111.66 28.0125C111.954 27.9963 112.419 28.0774 112.535 28.2728C114.705 31.9639 117.058 35.5661 118.311 39.7212C118.321 39.7562 118.304 39.7996 118.28 40.0086C116.031 39.5065 113.842 38.8998 111.95 37.5738C111.503 37.2606 111.375 36.4922 110.964 35.655C112.843 36.0384 114.439 36.3643 116.036 36.6898C116.064 36.5973 116.09 36.5053 116.118 36.4129C115.565 36.239 115.017 36.0445 114.458 35.8955C113.5 35.6402 112.543 35.3532 111.568 35.1916C110.636 35.0365 110.227 34.4784 109.903 33.3955C111.239 33.6877 112.401 33.9413 113.564 34.1954L113.602 34.0644C112.6 33.7832 111.609 33.4468 110.592 33.2347C109.371 32.9798 108.91 32.0896 108.339 30.9112C109.912 31.2148 111.254 31.4733 112.595 31.7322C112.611 31.6424 112.626 31.553 112.642 31.4632C110.39 30.846 108.131 30.2563 105.894 29.5913C105.368 29.4349 104.919 29.0236 104.435 28.7297ZM119.115 42.5971C118.135 41.8844 117.186 41.1935 116.18 40.4606C118.713 40.5193 118.903 40.6582 119.115 42.5971ZM49.299 52.6884C46.9912 48.5465 43.3316 45.6872 40.0505 42.4858C40.1153 42.4324 40.1853 42.3461 40.2098 42.3575C43.0922 43.7199 45.926 45.2229 48.1401 47.5402C49.439 48.9004 49.5528 50.8148 49.299 52.6884ZM27.5179 52.5276C30.7066 51.0246 33.9181 49.6118 37.5607 49.8572C34.2126 50.7473 30.8655 51.6375 27.5179 52.5276ZM24.2215 51.5845C23.5238 51.9774 22.835 52.3888 22.1461 52.7979C24.0398 51.5678 25.9327 50.3338 27.8382 49.123C28.0417 48.9933 28.3542 49.0354 28.6536 49.1291C27.1756 49.9461 25.6928 50.7548 24.2215 51.5845ZM18.5061 53.8909C19.202 51.4688 22.0131 49.5816 25.0766 49.4953C22.8792 50.9659 20.6927 52.4282 18.5061 53.8909ZM14.4727 57.5076C15.2321 55.0653 16.0439 52.6612 18.9329 51.5402C17.3617 53.6425 15.9174 55.5748 14.4727 57.5076ZM65.1096 29.2514C65.2632 29.1143 65.5486 29.0319 65.7543 29.0613C67.3324 29.2821 68.9062 29.5366 70.4814 29.7801C70.4997 29.8288 70.5177 29.8765 70.5365 29.9243L63.4618 31.3383C63.4023 31.2293 63.3428 31.1202 63.2833 31.0111C63.8886 30.4206 64.4811 29.8152 65.1096 29.2514ZM95.1125 16.6706L95.133 16.4962C96.4858 16.3867 97.8382 16.2776 99.1914 16.1672C99.3095 16.158 99.4286 16.1501 99.5454 16.1296C100.271 16.003 101.198 15.5316 101.677 15.8163C102.621 16.3775 103.315 17.3588 104.038 18.4123L95.1125 16.6706ZM177.884 51.5437C175.148 49.9036 172.326 48.3769 169.138 47.91C167.435 47.6603 166.494 46.5327 165.353 45.5321C169.612 45.9996 173.621 47.3742 177.678 48.727C177.43 48.2806 177.139 47.8937 176.754 47.7277C173.018 46.1205 169.188 44.7887 165.08 44.6586C163.084 44.5955 162.046 43.1337 160.632 42.1722C165.736 42.1963 170.768 42.4924 175.838 43.9122C175.584 42.8223 174.867 42.6194 174.205 42.4591C169.975 41.434 165.67 40.8071 161.34 41.2553C159.105 41.4862 157.599 40.4878 155.981 39.312C161.755 38.6273 167.538 38.8424 173.36 38.9007C172.872 38.5178 172.352 38.2366 171.819 38.209C169.083 38.067 166.342 37.8629 163.608 37.9273C161.04 37.9878 158.433 38.1354 155.934 38.6663C154.298 39.0137 153.205 38.2462 151.885 37.8336C152.27 37.6031 152.641 37.4656 153.024 37.3819C155.775 36.7787 158.51 36.076 161.286 35.6178C165.008 35.0036 168.701 33.8747 172.625 34.495C172.266 34.1437 171.859 33.8108 171.4 33.7087C170.788 33.5725 170.132 33.5523 169.502 33.5922C163.732 33.9637 158.038 34.874 152.625 36.911C150.642 37.6575 148.91 37.4336 147.015 36.9793C152.9 34.4324 159.044 32.7682 165.32 31.4667C164.769 31.3383 164.221 31.2551 163.706 31.3506C157.833 32.4396 152.078 33.9107 146.726 36.6709C146.415 36.8308 146.063 36.9973 145.726 37.0043C144.15 37.0398 142.572 37.0205 140.789 37.0205C143.769 34.9493 146.873 33.3885 149.997 31.8864C153.134 30.3772 156.345 29.0205 159.524 27.5973C159.504 27.4882 159.484 27.3791 159.464 27.2705C158.571 27.4317 157.625 27.4562 156.792 27.776C151.211 29.9212 145.801 32.469 141.033 36.0957C139.135 37.5396 137.082 37.4165 135.006 37.7915C140.456 33.1773 146.569 29.7543 153.265 27.3738C152.454 26.8907 152.354 26.8101 150.966 27.3445C145.364 29.5015 140.098 32.2789 135.678 36.405C134.391 37.6066 133.123 38.5721 131.38 38.9554C130.292 39.1946 129.264 39.7098 128.209 40.1014C130.055 37.3118 132.545 35.277 135.146 33.4008C137.725 31.5399 140.433 29.8568 143.083 28.0953C142.052 28.2631 141.036 28.5527 140.137 29.0525C136.503 31.0716 133.205 33.5755 130.254 36.4918C129.087 37.6434 128.234 39.1136 127.234 40.4357C127.118 40.5894 127.005 40.7677 126.847 40.865C125.199 41.8756 123.542 42.8722 121.888 43.8723C122.161 43.1675 122.524 42.5239 122.984 41.9623C126.456 37.7328 130.407 33.9974 134.689 30.6002C135.592 29.884 136.374 29.014 137.212 28.2149C137.132 28.1041 137.05 27.9933 136.97 27.8824C132.03 29.6277 127.426 32.0572 123.05 34.9804C124.787 31.5841 127.599 29.321 130.828 27.5131C133.988 25.7451 137.16 23.9898 140.813 23.2477C140.18 23.0379 139.56 22.938 138.984 23.0541C135.983 23.659 133.325 25.1112 130.664 26.5406C129.876 26.9638 129.107 27.4233 128.329 27.8667L128.184 27.6485C130.06 26.0106 131.563 23.8194 134.135 23.161C137.205 22.3746 140.323 21.7697 143.439 21.1831C145.13 20.8646 146.858 20.7463 148.57 20.5378C148.564 20.4423 148.558 20.3468 148.551 20.2509C146.383 19.7283 144.224 20.3043 142.084 20.5759C139.889 20.8545 137.723 21.371 135.545 21.7832C136.713 20.887 138.009 20.2851 139.205 19.5254C140.894 18.4522 142.638 18.3637 144.559 18.6962C147.529 19.2109 150.53 19.5522 153.522 19.9311C154.052 19.9977 154.603 19.8917 155.144 19.8649C155.151 19.7055 155.159 19.546 155.166 19.3866C151.645 18.4202 147.956 18.2572 144.425 17.2904C149.671 16.0008 154.561 17.414 159.429 19.2166C156.673 16.6719 153.019 16.5742 149.61 15.6328C150.894 15.3305 152.192 15.0138 153.446 15.1404C156.82 15.483 159.818 17.0153 162.837 18.4395C163.209 18.6151 163.578 18.7991 163.95 18.9787C164.007 18.8626 164.065 18.747 164.122 18.6309C161.957 16.8852 159.231 16.1615 156.794 14.8438C157.348 14.765 157.892 14.7348 158.4 14.8535C160.177 15.2683 161.939 15.7445 163.713 16.1734C164.073 16.2601 164.46 16.2399 164.834 16.2689C164.863 16.1204 164.892 15.9718 164.922 15.8233C162.532 14.7128 159.979 14.1131 157.367 13.5568C158.835 13.3294 160.303 13.1025 161.771 12.8747C161.755 12.7332 161.739 12.5917 161.723 12.4502C158.029 12.2207 154.37 13.6965 150.563 12.6802C153.396 11.4322 156.229 10.1846 159.063 8.9365C159.052 8.83925 159.04 8.74288 159.029 8.64563C158.567 8.68505 158.051 8.60357 157.651 8.7823C154.758 10.072 151.908 11.4606 149.004 12.7267C146.354 13.8818 143.653 14.9222 140.975 16.0135L140.834 15.713C144.618 12.3841 148.74 9.52132 153.188 7.02084C152.689 6.19596 152.099 6.37644 151.583 6.67038C149.859 7.65384 148.19 8.73718 146.447 9.68428C142.114 12.0376 139.127 16.0424 135.118 18.8245C131.975 21.0065 129.201 23.7195 126.32 26.149C126.435 25.7639 126.5 25.1616 126.776 24.6806C128.179 22.2362 129.391 19.6262 131.13 17.442C134.147 13.6536 137.506 10.1381 140.709 6.49735C141.112 6.04001 141.439 5.51608 141.801 5.02325C141.684 4.9006 141.566 4.77881 141.449 4.65659C140.894 4.972 140.245 5.18972 139.801 5.62034C137.834 7.52899 135.866 9.44378 134.008 11.458C130.622 15.1294 127.593 19.0646 125.799 23.8005C125.441 24.7468 124.66 25.6965 125.466 26.8162C125.551 26.9336 125.405 27.2832 125.284 27.4728C124.742 28.3179 124.171 29.1441 123.611 29.9773C123.514 29.488 123.627 29.1165 123.745 28.7459C124.843 25.3009 125.958 21.8608 127.018 18.404C127.165 17.9243 127.038 17.3601 127.038 16.8348C126.903 16.809 126.768 16.7827 126.633 16.7569C126.413 17.1914 126.141 17.6072 125.982 18.0627C123.987 23.7651 122.012 29.4735 120.025 35.1776C119.746 35.981 119.303 36.7231 119.747 37.6513C119.932 38.039 119.777 38.5892 119.777 39.0658C119.093 37.7757 118.621 36.4808 118.22 35.1644C118.145 34.9195 118.329 34.5752 118.441 34.2966C119.033 32.8238 119.819 31.4032 120.205 29.8805C121.103 26.3413 121.913 22.772 122.566 19.1798C123.156 15.939 123.496 12.6522 123.928 9.38333C124.015 8.72798 124.068 8.03978 123.119 7.61485C121.825 16.5418 120.593 25.3881 117.802 34.2046C117.192 32.9601 116.827 31.9289 116.227 31.0589C115.367 29.8082 115.472 28.8742 116.378 27.6117C119.056 23.8807 120.242 19.539 120.937 15.0615C121.315 12.6298 121.606 10.1824 121.847 7.73313C121.902 7.17372 121.589 6.57751 121.446 5.99839C121.328 6.0273 121.21 6.05534 121.092 6.08381C120.428 13.9094 119.042 21.5318 114.927 28.607C114.328 27.44 113.827 26.4649 113.542 25.9103C114.445 23.9999 115.42 22.5017 115.868 20.8594C116.629 18.0719 117.128 15.2048 117.601 12.3482C117.892 10.5911 117.959 8.79369 118.059 7.01076C118.095 6.37776 118.039 5.67422 117.244 5.36451C116.656 12.0713 115.876 18.6388 113.134 25.0578C112.317 23.9179 111.664 23.069 111.095 22.167C110.944 21.9269 110.928 21.4661 111.054 21.2059C112.742 17.721 113.569 13.9966 113.957 10.1889C114.177 8.03189 114.081 5.83631 114.018 3.66131C114.006 3.22981 113.498 2.81277 113.219 2.38916C113.125 2.44961 113.032 2.50963 112.938 2.57008C113.353 8.82655 111.997 14.7829 110.076 20.8944C109.364 20.1554 108.82 19.6783 108.395 19.1115C108.174 18.8158 108.005 18.3247 108.084 17.9839C109.017 13.9151 109.13 9.78942 109.003 5.64662C108.985 5.05698 108.867 4.46209 108.72 3.8891C108.675 3.71212 108.381 3.59954 108.041 3.331C108.263 8.34117 107.871 13.0644 107.175 18.001C106.647 17.5318 106.296 17.2269 105.951 16.9133C104.657 15.7357 103.398 14.5166 102.059 13.3934C101.494 12.9203 100.796 12.5541 100.099 12.3065C99.3481 12.0393 98.1169 12.7507 98.0469 11.1987C98.0443 11.1465 97.8434 11.0646 97.7331 11.0616C96.7086 11.0318 96.2333 10.2485 95.7077 9.56425C94.9816 8.61846 94.3234 7.6188 93.5807 6.68615C93.3483 6.39353 92.9369 6.24371 92.6069 6.02774L92.2598 6.39177C93.0901 7.75066 93.9199 9.10954 94.8713 10.6669C94.2796 10.4391 93.8848 10.2963 93.4975 10.1355C92.5443 9.74079 91.6016 9.31718 90.6396 8.94658C90.0322 8.71177 89.4895 8.74769 89.3 9.47094C90.63 10.0588 91.869 10.6826 93.1627 11.1571C94.4293 11.621 95.7519 11.9329 97.0499 12.3114L96.9856 12.6535C94.1098 12.961 91.234 13.2668 88.2619 12.1791C88.433 13.5581 89.4558 13.6124 90.2742 13.7517C92.7754 14.1767 95.2569 14.0387 97.6942 13.2769C97.9734 13.1901 98.3756 13.1362 98.5905 13.2729C99.4089 13.7925 100.174 14.3966 100.959 14.9691L100.849 15.2604C96.7313 15.9618 92.5684 15.3187 88.3989 15.511C88.7958 15.8295 89.2142 15.999 89.6466 16.0472C90.9276 16.1896 92.1382 16.5497 93.3798 16.8848C96.8517 17.8218 100.436 18.3786 104.001 18.9157C105.065 19.0764 105.702 19.4803 106.351 20.4502C101.293 20.7183 96.4705 20.4423 91.6624 19.2092C92.0787 19.6547 92.5443 20.0485 93.0761 20.1878C97.3441 21.3027 101.665 21.718 106.058 21.06C106.465 20.9991 107.038 20.9273 107.287 21.1441C108.011 21.7754 108.608 22.5503 109.443 23.4772C104.501 24.2815 99.903 23.5894 95.274 23.3918C95.6158 23.7274 95.9755 23.96 96.3663 24.0358C97.222 24.2018 98.0898 24.3512 98.9581 24.3963C102.085 24.5601 105.221 25.0048 108.332 24.2368C109.921 23.8443 109.95 23.8513 110.754 25.7088C106.05 25.5651 101.48 25.4262 96.909 25.2865C97.2526 25.6062 97.6307 25.8463 98.0325 25.8958C102.063 26.3935 106.101 26.6839 110.152 26.128C111.387 25.9589 111.526 26.0487 111.823 27.4439H99.2277C99.2146 27.5469 99.201 27.6489 99.1879 27.7515C100.022 27.8654 100.859 27.9622 101.69 28.098C102.473 28.2263 103.448 27.8386 103.995 28.642C103.962 28.7476 103.93 28.8528 103.897 28.9579C103.315 28.8615 102.732 28.7647 102.149 28.6679C102.122 28.7682 102.095 28.8681 102.067 28.968C102.53 29.1336 103.001 29.279 103.453 29.4691C103.883 29.6496 104.463 29.7648 104.682 30.1017C105.928 32.0182 107.086 33.9917 108.274 35.9459C108.205 36.0222 108.136 36.0984 108.067 36.1742C107.717 35.8658 107.34 35.581 107.021 35.2428C106.369 34.5516 105.85 33.6877 105.096 33.1467C102.138 31.0221 99.113 28.9886 96.0989 26.9415C95.7794 26.7246 95.3772 26.6055 94.996 26.5104C94.733 26.4447 94.4398 26.4981 94.1593 26.4981C98.2968 28.2802 101.118 31.5885 104.135 34.676C103.557 34.5389 103.044 34.2975 102.621 33.9483C99.7831 31.6064 96.6985 29.6557 93.3728 28.0958C92.4437 27.6603 91.4528 27.3335 90.4615 27.0633C90.0668 26.9555 89.5937 27.1364 89.156 27.1859C89.1739 27.2832 89.1915 27.3804 89.2094 27.4772C93.7422 28.6455 97.4613 31.3086 101.166 34.0259C99.9923 33.7762 98.9135 33.3259 97.8355 32.8733C94.9488 31.6621 92.0874 30.382 89.1613 29.2733C88.075 28.8615 86.8413 28.8054 85.6653 28.6819C85.288 28.6429 84.8784 28.9088 84.4836 29.035C88.956 29.4923 92.817 31.3344 96.6574 33.2356C95.2245 32.8251 93.8525 32.2092 92.4178 31.8342C90.9653 31.4544 89.4567 31.2687 87.9621 31.0808C86.4264 30.888 84.8806 30.7562 83.3348 30.6712C81.9094 30.5932 80.4415 30.2445 79.0799 30.8876L79.0843 31.2122L88.0124 31.9608C88.0146 32.0493 88.0168 32.1383 88.0185 32.2267C87.6492 32.2618 87.2807 32.3091 86.9113 32.3301C84.6504 32.4576 82.3833 32.5163 80.1303 32.727C78.8392 32.8475 77.4575 32.9246 76.524 33.9952C80.2979 33.6873 84.06 33.381 87.822 33.0744C87.8295 33.1782 87.8374 33.2816 87.8448 33.3854C86.6741 33.7276 85.4683 33.9816 84.3388 34.4285C81.385 35.5955 78.4423 36.7984 75.5411 38.0885C74.3568 38.6155 73.2915 39.4088 72.1672 40.0716C71.9746 40.1855 71.7628 40.2823 71.5479 40.341C71.0464 40.4773 70.4542 40.4584 70.0446 40.7265C68.1198 41.9882 66.2514 43.3361 64.3442 44.6262C64.0229 44.8435 63.6767 45.4507 63.2063 44.7826L70.1763 38.5954C68.9054 39.2928 67.6725 40.0607 66.4663 40.8685C65.2812 41.6623 64.0614 42.4227 62.9704 43.3344C61.9064 44.2249 60.9865 45.2881 60.0035 46.2755C59.9173 46.1945 59.8311 46.113 59.7444 46.0324C60.3856 45.0341 61.1121 44.0804 61.6456 43.0277C62.341 41.6561 63.1782 40.5434 64.7998 40.274C64.8264 40.2701 64.8348 40.1593 64.8597 40.0694C64.3722 40.1128 63.8951 40.1557 63.4185 40.1982C63.3918 40.0554 63.3664 39.9131 63.3402 39.7702C64.6523 39.5985 65.9643 39.4277 67.2764 39.256C67.2611 39.1583 67.2458 39.061 67.23 38.9638H56.687C56.9124 38.0022 57.2349 37.6421 58.2078 37.813C61.5292 38.3956 64.8597 38.0837 68.1762 37.6513C68.5351 37.6044 68.8743 37.4021 69.4813 37.1751C65.3669 37.2969 61.5944 37.4082 57.8223 37.5199C58.1325 36.642 58.1741 35.7514 59.2306 36.062C62.692 37.0796 66.1648 36.4896 69.6319 36.0988C70.0052 36.0568 70.3544 35.8049 70.7151 35.6507L70.6363 35.3944C66.7753 35.7663 62.9143 36.3227 58.905 35.6459C59.7996 34.1398 60.6495 33.2063 62.4938 33.5821C65.6243 34.2208 68.7487 33.6435 71.8355 33.0437C72.4928 32.9163 73.1016 32.5356 73.7318 32.2719C73.6894 32.1606 73.646 32.0493 73.6031 31.9381C69.638 32.9649 65.6282 33.4008 61.4062 33.0586C61.9379 32.1619 62.5091 31.73 63.4085 31.7488C64.0015 31.7615 64.6107 31.7322 65.1888 31.6086C68.855 30.8245 72.5147 30.011 76.1739 29.1962C76.2881 29.1712 76.3761 29.0293 76.4772 28.9417C72.9629 28.7402 69.491 29.2637 65.7945 28.6355C67.1071 27.3988 68.0795 26.7474 69.7995 27.1995C71.4678 27.638 73.3318 27.4225 75.103 27.3427C76.1547 27.2946 76.3678 26.9726 76.4606 26.1516C74.0946 27.0133 71.7072 26.7785 69.2726 26.2971C71.4442 25.495 73.6154 24.6929 75.7875 23.8903C75.7538 23.7716 75.7214 23.6529 75.689 23.5342C74.0211 22.7159 72.8263 24.6653 71.2346 24.5593C71.7768 23.3016 72.9178 22.4281 72.934 20.9741C72.5423 21.1239 72.2604 21.3557 72.0136 21.619C70.8534 22.8596 70.3807 24.7783 68.4353 25.2479C68.3732 25.2628 68.2892 25.357 68.2857 25.4179C68.2375 26.2428 67.7268 26.1508 67.1101 26.1424C66.6326 26.1359 66.0746 26.3426 65.6856 26.6326C64.7 27.366 63.7787 28.1878 62.8526 28.9978C62.18 29.5865 61.5401 30.213 60.8858 30.8223C60.7501 30.7851 60.6149 30.7474 60.4788 30.7097L59.7339 18.846C59.4284 19.2065 59.1851 19.6297 59.2017 20.0424C59.3357 23.3349 59.2853 26.662 59.7812 29.9028C60.0429 31.6108 59.3777 32.3455 58.1785 33.3307C56.5999 28.243 55.4756 23.2315 55.7767 17.9252C54.9009 18.4552 54.6646 18.8771 54.6908 20.2855C54.7775 24.8545 55.416 29.3184 57.3233 33.5313C57.4507 33.8125 57.5115 34.2681 57.3702 34.5021C56.9027 35.2739 56.329 35.9818 55.6371 36.9329C53.3206 31.5311 52.7035 26.0058 51.98 20.4471C51.7126 20.9531 51.4592 21.4976 51.524 22.0005C51.9638 25.4258 52.3148 28.8751 53.0234 32.2473C53.3704 33.8988 54.4304 35.3979 55.1478 36.9754C55.2497 37.1992 55.3451 37.5243 55.2567 37.7179C54.9399 38.4179 54.5429 39.0816 54.0773 39.9402C52.4015 36.8396 51.089 33.8585 50.4246 30.6515C49.7642 27.4584 49.2871 24.2268 48.7296 21.0131C48.6399 21.0004 48.5493 20.9886 48.4595 20.9763C48.404 21.6816 48.27 22.3913 48.3116 23.0909C48.3755 24.1602 48.5444 25.2243 48.6963 26.287C49.3922 31.1666 50.4154 35.9319 53.479 39.9875C53.6234 40.1781 53.7416 40.5443 53.6558 40.727C53.0698 41.9685 52.426 43.1828 51.6837 44.6345C49.3248 37.1839 48.3348 29.7372 46.951 22.3348C46.6525 22.8499 46.4892 23.369 46.5575 23.8562C47.0731 27.5158 47.4963 31.1977 48.2241 34.8166C48.825 37.8055 49.7813 40.7248 50.6272 43.6612C50.8671 44.4926 51.692 45.1423 51.1336 46.1923C50.7327 46.9466 50.5506 47.8171 50.2705 48.6358C50.0701 47.772 50.278 46.8985 50.0368 46.1752C48.3366 41.0836 46.5479 36.0213 44.7741 30.9546C44.6546 30.6125 44.4283 30.3076 44.2519 29.986C44.108 30.0185 43.9644 30.0513 43.8209 30.0846C43.876 30.6155 43.8454 31.1736 44.0003 31.6739C44.8445 34.4096 45.7369 37.1296 46.6052 39.8574C46.6866 40.115 46.7111 40.391 46.7619 40.6578C46.6507 40.6968 46.5396 40.7357 46.4288 40.7743C46.0314 39.9849 45.2218 39.1237 45.343 38.4245C45.4949 37.5506 45.3378 36.8694 45.0577 36.1632C42.5167 29.7705 37.9112 24.9544 32.9636 20.4112C32.6296 20.1041 32.1198 19.9894 31.6922 19.7852L31.469 20.0743C31.7557 20.466 32.0069 20.8905 32.3347 21.244C33.7693 22.7877 35.2582 24.2815 36.6674 25.8485C39.5209 29.021 42.1727 32.3446 43.9504 36.2732C44.1544 36.7244 44.2922 37.2054 44.4603 37.6737C44.1075 37.636 43.9224 37.5072 43.7513 37.3613C41.6991 35.6112 39.668 33.8353 37.5882 32.1185C36.7764 31.4487 35.7943 30.9818 35.0017 30.2931C34.0463 29.4625 33.3154 28.3468 32.2997 27.6139C29.4055 25.5243 26.4259 23.5513 23.4503 21.5782C23.0809 21.3338 22.5295 21.3649 22.063 21.2689C22.0135 21.4153 21.9645 21.562 21.915 21.7088C25.4972 23.8741 29.0173 26.1218 32.0331 29.0433C31.0388 28.8033 30.0882 28.5189 29.1796 28.1348C27.6553 27.4899 26.1589 26.7785 24.649 26.0995C22.5501 25.1564 20.4585 24.1961 18.342 23.2946C17.9359 23.122 17.43 23.1868 16.9696 23.1421L16.9647 23.3629C19.2821 24.3906 21.5995 25.4183 23.9169 26.446C23.8718 26.6199 23.8258 26.7938 23.7803 26.9678C20.7789 26.7404 17.777 26.5126 14.7756 26.2857C14.7673 26.4145 14.7585 26.5433 14.7502 26.6721C15.9117 26.8508 17.0728 27.0291 18.4156 27.2359C16.1262 27.8566 13.9353 28.1321 11.9956 29.1541C12.0302 29.2943 12.0648 29.4341 12.0993 29.5743C14.2561 29.0806 16.4129 28.5864 18.5692 28.0918L18.6479 28.4283C16.6623 29.3811 14.6762 30.3334 12.6902 31.2858C12.7545 31.4185 12.8193 31.5521 12.8836 31.6853C13.1869 31.5486 13.485 31.3979 13.7953 31.2779C16.0159 30.4228 18.2138 29.4976 20.4708 28.7511C21.9054 28.2763 23.3995 28.3525 25.0473 29.1962C24.5536 29.268 24.3265 29.2816 24.109 29.3359C22.073 29.8476 20.0287 30.3282 18.0129 30.9077C17.5109 31.0523 17.1026 31.521 16.6505 31.8408C16.7074 31.9262 16.7639 32.0112 16.8203 32.0966C19.8957 30.517 23.2424 30.0802 26.6137 29.8336C27.4404 29.7731 28.2964 30.1139 29.1389 30.2699C29.1236 30.3847 29.1083 30.499 29.093 30.6133C26.1537 31.1732 23.1356 31.3611 20.2703 32.3919C20.6988 32.6162 21.1106 32.6604 21.5098 32.6092C24.0709 32.2802 26.6351 31.9674 29.1875 31.5762C31.4799 31.2244 35.0179 32.4042 36.6552 34.17C33.0957 33.5287 29.5757 32.6534 25.9357 32.9504C26.3042 33.1809 26.6951 33.212 27.0793 33.2825C30.5902 33.9278 34.112 34.5226 37.6062 35.2503C39.8111 35.7089 41.1297 37.4778 42.5854 39.0255C41.9026 38.8039 41.3144 38.4118 40.6768 38.1349C38.425 37.1567 36.1663 36.1921 33.8835 35.2888C33.4616 35.1219 32.9167 35.2652 32.4288 35.2652C32.4375 35.3607 32.4454 35.4566 32.4537 35.5525C40.0767 37.8725 46.6017 42.2011 47.0372 45.2268C39.2434 40.6091 36.8526 39.454 35.3081 39.652C39.8527 43.7825 44.7662 47.4272 48.1134 52.6157C46.3628 51.3567 44.3465 50.6799 42.9464 48.7239C40.1323 44.7931 36.1519 42.0815 31.8738 39.8622C31.4826 39.6599 31.0051 39.6248 30.5679 39.5118C35.1974 42.2852 39.45 45.399 42.9618 49.4804C41.3276 49.0717 39.7647 48.5517 38.2106 48.005C37.9979 47.9305 37.8071 47.7457 37.6486 47.5726C35.4976 45.2268 32.9417 43.4062 30.1398 41.9523C27.9586 40.8199 25.7104 39.8123 23.4543 38.8345C22.9864 38.6317 22.3562 38.8052 21.8004 38.8052C27.7699 41.052 36.0285 45.781 37.0933 47.9744C35.5838 47.5748 34.1522 47.4478 32.9776 46.8297C30.9482 45.7621 29.1507 44.2543 27.1248 43.1775C24.4285 41.7442 21.6192 40.5185 18.83 39.266C18.1171 38.9458 17.3083 38.612 16.2908 39.1894C22.0152 41.1414 27.1205 43.9008 32.0769 46.9918C29.5761 46.8398 27.1651 47.0089 24.7659 47.492C24.3615 47.5735 23.8958 47.5008 23.4871 47.393C20.4603 46.5953 17.4694 45.6281 14.4088 45.0003C12.0131 44.5088 9.53645 44.3883 7.08822 44.1943C6.55648 44.1522 5.99409 44.5 5.44571 44.6683C11.4814 44.6941 17.1127 46.2939 22.7829 47.6822C21.5264 48.3712 20.3789 48.596 18.9237 48.2994C14.6526 47.4276 10.3041 47.641 5.97965 48.051C5.59539 48.0874 5.23039 48.3196 4.8562 48.461C4.87589 48.5693 4.89558 48.6775 4.91528 48.7861C9.73427 48.6402 14.5546 48.4352 19.3626 48.9872C18.0545 50.0806 16.763 50.8008 14.9454 50.6172C11.4044 50.2589 7.88782 50.7736 4.42423 51.5564C3.80101 51.697 3.0093 51.7527 2.81323 52.8369C7.0042 51.6773 11.154 51.3851 15.3887 51.4833C14.3218 52.2135 13.569 53.4042 12.1396 53.4546C8.70754 53.5759 5.51311 54.654 2.35895 55.881C1.92655 56.0497 1.56767 56.4089 1.17422 56.68C1.22762 56.7939 1.28101 56.9078 1.33484 57.0217C4.6098 55.7746 7.91057 54.6352 11.4048 54.2773C10.5168 55.3396 9.53777 56.079 8.14253 56.3037C5.55425 56.7195 3.26183 57.9513 1.0403 59.2857C0.632846 59.5301 0.343557 59.9717 0 60.3221L0.240271 60.571C2.84693 59.3295 5.45403 58.0884 8.06069 56.847C7.41384 58.5646 6.77093 60.0654 5.20107 60.9692C4.33408 61.469 3.67278 62.3478 2.96991 63.103C2.71826 63.3728 2.61541 63.7815 2.44473 64.1267C2.51432 64.164 2.5839 64.2008 2.65393 64.238C4.04654 62.9383 5.43871 61.6385 6.83176 60.3383C6.91929 60.4058 7.00638 60.4733 7.09479 60.5403C6.39586 62.2983 5.69693 64.0558 4.99843 65.8137L5.34724 65.9846C6.57179 65.3476 6.46107 63.7798 7.38189 62.7192C7.31887 63.7588 7.26547 64.6437 7.21252 65.529L7.67162 65.6249C7.83486 65.2762 8.08257 64.9415 8.14603 64.5753C8.41169 63.0478 8.5955 61.5062 8.85984 59.9783C9.20121 57.9995 10.0179 57.009 11.9361 56.2144C10.6814 58.6159 9.39772 60.9319 9.29662 63.6431C9.54696 63.4955 9.652 63.2966 9.7369 63.0885C10.6744 60.7681 11.5978 58.4415 12.5506 56.1272C12.9782 55.0903 13.797 54.4788 14.9353 54.0648C12.5978 58.9527 11.8158 62.2466 12.7755 63.478C13.0679 62.5637 13.2412 61.6718 13.6272 60.8842C14.5244 59.0517 15.6513 57.3853 17.3888 56.2004C18.7171 55.2944 19.9968 54.3189 21.2944 53.3687C20.7649 53.8751 20.2231 54.3697 19.7285 54.9089C19.3959 55.2712 19.1569 55.7198 18.7521 56.3103C19.1762 56.2578 19.2769 56.277 19.3215 56.235C22.3759 53.3766 25.9222 51.3028 29.6886 49.5312C31.2545 48.7944 32.7255 49.0866 34.27 49.349C34.0437 49.5326 33.8047 49.6311 33.5557 49.6802C29.6807 50.4503 26.1519 52.0545 22.8534 54.1857C22.3855 54.4884 22.0441 54.986 21.6441 55.3934C21.7176 55.4605 21.792 55.5284 21.866 55.5958C23.2976 54.7307 24.7291 53.8659 26.1611 53.0007C26.1913 53.0533 26.2215 53.1059 26.2517 53.158C26.0832 53.4331 25.9143 53.7082 25.6119 54.2019C26.106 54.0223 26.3572 53.9413 26.601 53.8401C30.5849 52.1912 34.7177 51.0662 38.9809 50.4599C39.7087 50.357 40.4912 50.64 41.2488 50.7451C41.2278 50.8411 41.2068 50.9379 41.1858 51.0342C35.1908 51.8486 29.9057 53.6609 29.233 55.2187C29.4729 55.163 29.6562 55.1381 29.8269 55.0776C32.6323 54.0893 35.4293 53.0778 38.2417 52.1101C41.4711 50.9988 44.3797 51.6261 46.747 53.6342C45.3133 53.4673 43.637 53.0857 41.9722 53.1282C40.2431 53.1725 38.5099 53.5579 36.8044 53.9198C35.2118 54.258 33.4883 54.3263 32.2187 55.5774C36.4556 54.7657 40.6111 53.5045 44.9824 53.8033C44.9146 53.9934 44.8275 54.081 44.7281 54.1003C39.8015 55.0575 35.7002 57.7191 31.6511 60.4746C31.3184 60.7002 31.1267 61.133 30.8694 61.469C30.9421 61.5351 31.0143 61.6017 31.0869 61.6679C31.2524 61.5916 31.4296 61.5347 31.581 61.4379C33.1198 60.4531 34.6061 59.3746 36.2009 58.4928C38.9441 56.9762 41.6545 55.3374 44.7995 54.7469C46.4266 54.442 48.0937 54.014 49.5957 55.2007C49.6408 55.2366 49.7471 55.1963 49.9034 55.1862C49.9926 54.9383 50.092 54.6636 50.2215 54.3044C50.6272 54.428 50.9979 54.541 51.1104 54.5751C50.8513 55.7645 50.5073 56.7317 50.4513 57.7152C50.2373 61.4883 50.0767 65.2662 49.9673 69.0445C49.7292 77.3134 49.137 85.5859 50.1126 93.8491C50.1563 94.2202 50.1546 94.727 49.9445 94.9754C49.0066 96.0833 47.8941 96.9896 46.3886 97.1907C45.1688 97.3536 44.9636 97.192 45.0257 95.9553C45.4979 86.6604 45.9268 77.3625 46.5137 68.075C46.7575 64.2179 47.3536 60.3835 47.7895 56.5381C47.6083 56.6818 47.5168 56.8513 47.4595 57.0318C47.3151 57.4852 47.1685 57.9391 47.0542 58.4008C45.2883 65.5334 44.6542 72.8333 43.9885 80.1162C43.213 88.602 42.8642 97.1184 43.22 105.636C43.416 110.322 43.8638 115.002 44.3657 119.666C44.6712 122.507 45.3089 125.312 45.7671 128.139C45.8621 128.723 46.1063 129.332 45.2445 129.736C41.0553 131.702 36.769 133.381 32.2016 134.215C30.6475 134.498 29.0531 134.556 27.482 134.752C27.1901 134.789 26.9178 134.99 26.6373 135.116C26.811 135.403 26.9314 135.867 27.1708 135.94C27.7651 136.122 28.4159 136.203 29.0405 136.186C34.0104 136.052 38.7038 134.758 43.1359 132.57C45.9877 131.162 48.8556 129.853 51.9131 128.94C54.0681 128.295 56.1942 128.254 58.3908 128.577C61.66 129.057 64.2785 130.867 66.953 132.592C69.522 134.249 72.0928 135.906 74.7012 137.5C75.2632 137.844 75.9897 137.917 76.7197 138.139C73.629 135.868 70.6752 133.679 67.701 131.518C65.0212 129.571 62.2749 127.753 58.9435 127.07C58.6752 127.016 58.3492 126.595 58.2835 126.294C57.0135 120.464 55.7456 114.634 54.5499 108.789C53.9569 105.888 53.5101 102.956 52.9472 99.7547C53.2829 100.07 53.4111 100.156 53.4952 100.274C55.5311 103.136 57.9111 105.667 60.4473 108.106C67.4598 114.85 75.9516 118.284 85.4517 118.825C96.934 119.48 106.456 115.335 113.206 105.658C113.97 104.562 114.786 103.503 115.578 102.427C115.704 102.468 115.831 102.507 115.957 102.548C113.963 112.26 111.969 121.973 109.968 131.72C107.292 132.091 104.946 133.056 102.79 134.435C100.849 135.676 98.966 137.011 97.1025 138.366C94.1501 140.513 91.4445 143.019 88.0562 144.523C87.9822 144.556 87.9538 144.692 87.8575 144.863C89.3972 144.871 90.6677 144.278 91.8344 143.542C94.4879 141.866 97.0797 140.092 99.7061 138.373C102.399 136.61 105.068 134.827 108.22 133.906C113.701 132.303 118.733 133.963 123.528 136.241C128.826 138.759 134.098 141.241 139.939 142.154C141.89 142.46 143.89 142.461 145.871 142.557C146.245 142.575 146.726 142.491 146.984 142.26C147.254 142.017 147.314 141.541 147.466 141.166C147.158 141.073 146.855 140.92 146.542 140.897C145.476 140.815 144.392 140.872 143.34 140.709C137.329 139.776 131.616 137.887 126.139 135.244C124.606 134.504 124.605 134.567 124.863 132.869C125.602 128.039 126.56 123.225 126.978 118.366C127.538 111.873 127.86 105.346 127.943 98.8295C128.059 89.836 127.436 80.8644 126.52 71.9121C125.78 64.6726 124.988 57.448 123.307 50.3535C123.141 49.65 122.891 48.9657 122.68 48.2722L122.389 48.3441C122.523 49.4717 122.667 50.5988 122.791 51.7277C123.293 56.3086 123.864 60.8833 124.266 65.4729C124.641 69.7484 124.868 74.0389 125.097 78.3267C125.337 82.8545 125.493 87.3872 125.709 91.9172C125.739 92.5691 125.489 92.9704 124.87 92.9406C123.541 92.8762 122.209 92.764 120.89 92.5835C120.005 92.4626 119.708 91.8936 119.79 90.9649C120.01 88.4701 120.26 85.967 120.268 83.4661C120.283 78.8532 120.165 74.2386 120.046 69.6267C119.895 63.7399 119.772 57.8497 119.459 51.9704C119.353 49.9868 119.688 47.8302 118.062 45.9395C118.715 45.8449 119.159 45.7805 119.626 45.7126C119.726 46.0898 119.808 46.4017 119.921 46.8266C120.3 46.6623 120.568 46.5033 120.858 46.428C121.715 46.2037 122.585 45.8248 123.441 45.8458C125.805 45.9036 128.085 46.4849 130.218 47.517C134.19 49.4397 138.149 51.3904 141.675 54.0959C141.841 54.2234 142.068 54.2738 142.367 54.4039C142.43 53.1939 141.535 52.794 140.869 52.3682C136.086 49.3091 131.284 46.2712 125.576 45.1081C128.176 44.4063 130.715 45.1585 133.244 45.5983C135.822 46.0464 138.366 46.7018 140.924 47.2664C140.835 46.8748 140.657 46.5743 140.412 46.5011C134.828 44.8374 129.253 42.9997 123.317 45.017C124.156 44.4466 125.043 44.0125 125.871 43.4851C127.544 42.4192 129.323 42.2287 131.247 42.5603C135.541 43.3002 139.644 44.6126 143.582 46.467C143.839 46.5879 144.126 46.6457 144.558 46.7837C144.461 46.4389 144.462 46.2602 144.373 46.1647C144.187 45.9636 143.979 45.7551 143.737 45.6377C139.432 43.549 134.93 42.1297 130.034 41.7258C131.376 40.9762 131.886 40.8856 133.193 41.0967C138.384 41.9374 143.438 43.2555 148.257 45.4042C148.339 45.441 148.468 45.3762 148.763 45.3276C148.395 44.9026 148.108 44.5701 147.82 44.2381L148 44.0239C149.734 45.0936 151.468 46.1638 153.193 47.227C153.253 46.4157 153.222 46.262 152.126 45.5527C148.158 42.9843 143.93 41.0174 139.254 40.1246C138.842 40.0462 138.437 39.931 138.028 39.8325C138.037 39.7422 138.047 39.6524 138.056 39.5626C139.657 39.5626 141.409 39.1359 142.83 39.6415C147.313 41.2378 151.305 43.8013 154.985 46.8266C155.487 47.2393 155.932 47.7212 156.403 48.1715C156.52 48.0909 156.638 48.0098 156.755 47.9297C156.485 47.4771 156.309 46.9142 155.928 46.5914C154.566 45.4366 153.21 44.249 151.714 43.287C149.524 41.8791 147.216 40.6556 144.958 39.3541C145.774 39.4693 146.601 39.6664 147.326 40.0546C151.662 42.3767 155.481 45.4353 159.247 48.5618C161.481 50.417 162.984 52.7252 163.536 55.6155C163.596 55.9314 163.78 56.2231 163.907 56.5267C164.035 56.5009 164.164 56.4755 164.292 56.4496C164.836 54.5156 164.174 52.6336 163.631 50.8108C163.075 48.9477 162.235 47.1701 161.505 45.3184C162.523 45.823 163.545 46.3807 164.034 47.5604C165.204 50.3846 166.359 53.2158 167.522 56.0431C167.629 56.3046 167.751 56.56 167.867 56.818C167.983 56.7729 168.1 56.7287 168.216 56.684C167.982 53.4467 166.337 50.6755 164.875 47.7558C167.399 48.8097 168.428 50.7175 168.701 53.1768C168.873 54.7153 169.106 56.2503 169.4 57.77C169.482 58.1962 169.878 58.5624 170.131 58.9567C170.251 58.4805 170.477 58.0021 170.468 57.5286C170.453 56.744 170.286 55.9625 170.183 55.1797C170.682 55.9888 171.008 56.8382 171.371 57.6714C172.093 59.3264 172.191 59.4044 173.158 59.2195C172.292 57.098 171.431 54.9887 170.569 52.8798C170.661 52.8102 170.752 52.741 170.844 52.6722C172.55 54.2654 174.257 55.8582 175.963 57.4515C176.054 57.3959 176.146 57.3407 176.237 57.285C175.992 56.8404 175.838 56.2963 175.484 55.9678C174.091 54.6715 172.637 53.4405 171.201 52.1912C170.995 52.012 170.66 51.9113 170.559 51.6927C170.114 50.7346 169.733 49.7468 169.218 48.4996C172.475 50.0556 175.627 51.5621 178.828 53.0914C179.089 52.2179 178.427 51.8692 177.884 51.5437Z" fill="#02374E"/>
</g>
<path fill-rule="evenodd" clip-rule="evenodd" d="M145.712 5.25671C139.78 10.9906 133.216 16.1352 128.629 23.2152C128.822 22.6773 128.923 22.078 129.226 21.611C130.303 19.9499 131.245 18.1328 132.609 16.7389C136.269 12.9978 140.114 9.43587 143.91 5.82927C144.336 5.42406 144.922 5.18662 145.433 4.87122C145.526 4.99957 145.619 5.12836 145.712 5.25671Z" fill="#02374E"/>
<path fill-rule="evenodd" clip-rule="evenodd" d="M103.53 14.0847C103.296 12.3154 103.191 10.7033 102.846 9.14464C102.497 7.56409 101.988 6.00677 101.407 4.49369C100.844 3.02792 100.1 1.63136 99.3408 0C102.461 0.801224 105.436 11.1852 103.53 14.0847Z" fill="#02374E"/>
<path fill-rule="evenodd" clip-rule="evenodd" d="M28.2949 20.2236C31.1721 20.7331 41.5112 31.7811 42.3379 35.1525C38.5251 29.3604 33.1638 25.0358 28.2949 20.2236Z" fill="#02374E"/>
<path fill-rule="evenodd" clip-rule="evenodd" d="M67.1021 15.9761C65.2443 19.5809 63.8744 23.3133 63.9016 27.6742C61.9711 24.8623 64.8102 16.9184 67.1021 15.9761Z" fill="#02374E"/>
<path fill-rule="evenodd" clip-rule="evenodd" d="M94.2314 1.51477C96.4989 2.18151 99.9866 9.64397 99.0688 12.0021C97.9471 8.17075 96.6832 4.64782 94.2314 1.51477Z" fill="#02374E"/>
<path fill-rule="evenodd" clip-rule="evenodd" d="M11.7598 42.2656C16.8199 42.7103 21.5706 44.3066 26.2172 46.2757C21.3982 44.9396 16.5792 43.6026 11.7598 42.2656Z" fill="#02374E"/>
<path fill-rule="evenodd" clip-rule="evenodd" d="M67.4174 25.3881C66.9456 23.6157 69.4551 18.1561 71.1147 17.2449C69.9247 19.8663 68.656 22.6603 67.4174 25.3881Z" fill="#02374E"/>
</svg>
